<?xml version="1.0" standalone="no"?>
<!DOCTYPE svg PUBLIC "-//W3C//DTD SVG 20010904//EN"
 "http://www.w3.org/TR/2001/REC-SVG-20010904/DTD/svg10.dtd">
<svg version="1.0" xmlns="http://www.w3.org/2000/svg"
 width="1164.000000pt" height="1348.000000pt" viewBox="0 0 1164.000000 1348.000000"
 preserveAspectRatio="xMidYMid meet">

<g transform="translate(0.000000,1348.000000) scale(0.100000,-0.100000)"
fill="#000000" stroke="none">
<path d="M6127 13215 c-27 -37 -47 -76 -47 -91 0 -14 -9 -37 -20 -51 -11 -14
-20 -36 -20 -48 0 -12 -9 -30 -20 -40 -11 -10 -20 -26 -20 -36 0 -10 -13 -34
-30 -52 l-30 -34 -212 -7 c-203 -7 -215 -8 -250 -32 -40 -25 -46 -45 -25 -80
21 -36 91 -114 102 -114 6 0 18 -8 26 -17 37 -41 96 -91 153 -128 71 -47 78
-69 47 -141 -12 -26 -21 -55 -21 -66 0 -10 -9 -36 -20 -58 -11 -22 -20 -45
-20 -52 0 -8 -9 -31 -20 -53 -13 -25 -20 -59 -20 -94 0 -46 4 -59 27 -83 29
-31 54 -36 72 -14 7 8 23 17 37 20 14 4 44 19 66 34 23 15 48 31 57 37 25 15
61 38 90 57 14 10 44 27 66 39 22 12 54 32 71 45 30 23 64 32 64 17 0 -5 24
-24 52 -43 57 -38 77 -54 151 -119 79 -68 156 -91 192 -55 21 22 15 202 -9
238 -8 14 -18 44 -22 68 -3 24 -16 63 -27 86 l-22 44 59 54 c33 30 63 54 68
54 14 0 214 177 232 205 23 35 21 98 -5 121 -19 17 -38 18 -197 18 -98 0 -189
-4 -203 -7 -32 -8 -92 28 -98 58 -2 11 -11 31 -21 45 -10 14 -21 39 -24 57 -4
17 -13 37 -21 43 -8 6 -17 26 -21 43 -3 18 -13 41 -20 52 -8 11 -14 28 -14 38
0 24 -70 107 -90 107 -9 0 -37 -29 -63 -65z"/>
<path d="M510 12730 c-54 -7 -105 -22 -145 -43 -11 -6 -29 -15 -41 -21 -43
-23 -81 -63 -104 -111 -33 -68 -35 -139 -34 -1060 14 -8019 17 -8890 29 -9250
3 -66 9 -345 16 -620 10 -452 13 -502 28 -520 10 -11 27 -36 39 -56 29 -48
112 -100 181 -113 64 -11 10484 -15 10666 -3 148 9 184 16 216 39 15 11 32 18
37 14 13 -8 72 62 72 85 0 9 10 29 23 45 l22 29 -3 1965 c-2 1081 -7 2525 -12
3210 -6 685 -12 2267 -15 3515 -6 2481 -8 2666 -30 2698 -8 12 -15 31 -15 43
0 27 -91 112 -129 120 -14 3 -46 14 -71 25 -44 19 -74 20 -1925 17 -1740 -3
-1882 -4 -1911 -20 -51 -28 -56 -40 -49 -112 4 -36 13 -73 20 -83 13 -17 103
-18 1892 -23 2090 -6 1933 0 1982 -75 l26 -40 2 -2190 c2 -1204 8 -2923 13
-3820 18 -2857 20 -3241 25 -4192 l4 -932 -39 -49 c-22 -28 -47 -53 -56 -56
-9 -3 -2400 -6 -5314 -6 l-5297 0 -49 21 c-85 35 -91 40 -112 83 -19 40 -20
65 -27 731 -3 380 -10 762 -15 850 -10 188 -12 1074 -14 5972 l-1 3633 36 35
35 36 2290 0 c1259 -1 2303 3 2319 7 45 12 60 50 44 115 -7 29 -24 67 -38 84
l-26 32 -2245 -1 c-1235 0 -2270 -4 -2300 -8z"/>
<path d="M6465 10820 c-58 -5 -59 -6 -67 -40 -4 -19 -7 -158 -7 -308 1 -150
-2 -276 -6 -280 -10 -10 -63 58 -69 90 -3 14 -20 50 -39 80 -18 29 -38 64 -45
78 -6 14 -16 32 -20 40 -5 8 -29 56 -52 105 -24 50 -52 102 -62 117 -10 14
-18 32 -18 40 0 8 -15 28 -33 46 -31 30 -37 32 -109 32 -51 0 -79 -4 -87 -13
-17 -21 -16 -1047 1 -1059 15 -10 143 -6 154 5 9 9 7 522 -2 623 -4 51 -3 74
6 79 14 9 70 -42 70 -64 0 -9 9 -27 20 -41 11 -14 20 -33 20 -42 0 -9 16 -47
35 -84 19 -37 35 -72 35 -79 0 -7 9 -23 19 -37 11 -14 21 -31 23 -39 2 -8 13
-28 26 -46 12 -17 22 -37 22 -44 0 -19 41 -101 62 -125 10 -12 18 -25 17 -30
-4 -22 3 -37 27 -59 23 -21 37 -25 90 -25 37 0 66 5 70 12 5 8 9 992 4 1059 0
12 -24 14 -85 9z"/>
<path d="M1156 10798 c-14 -20 -16 -87 -16 -534 l0 -512 28 -7 c15 -4 110 -6
212 -4 158 2 190 5 218 21 18 10 39 18 46 18 7 0 21 9 31 20 10 11 25 20 34
20 9 0 51 33 94 74 68 65 77 77 71 100 -4 18 1 37 16 63 22 36 23 49 24 243 1
196 0 207 -22 240 -12 19 -22 40 -22 46 0 27 -163 194 -190 194 -8 0 -26 9
-40 20 -23 18 -42 20 -247 20 -218 0 -222 0 -237 -22z m409 -162 c66 -27 113
-68 137 -118 58 -120 75 -277 38 -353 -11 -22 -19 -50 -20 -61 0 -12 -9 -33
-20 -47 -11 -14 -20 -32 -20 -40 0 -20 -72 -77 -96 -77 -11 0 -43 -9 -72 -20
-71 -27 -153 -27 -178 1 -18 20 -19 42 -20 368 -1 220 2 351 8 359 7 8 40 12
97 12 68 0 98 -5 146 -24z"/>
<path d="M2126 10811 c-3 -5 -6 -244 -6 -531 -1 -375 2 -525 10 -530 20 -12
547 -12 570 0 21 11 50 69 50 101 0 45 -20 49 -224 49 -139 0 -197 3 -210 13
-18 13 -23 51 -27 201 -2 64 0 81 14 91 12 9 60 12 168 10 l150 -2 25 43 c21
36 23 46 13 66 -30 59 -30 59 -197 57 -93 0 -158 3 -164 9 -13 13 -18 231 -6
255 8 15 29 17 213 17 241 0 238 -2 233 94 l-3 61 -302 3 c-169 1 -304 -2
-307 -7z"/>
<path d="M3327 10813 c-4 -3 -7 -241 -7 -528 0 -455 2 -524 15 -535 16 -13
132 -10 155 5 9 6 10 36 5 121 -9 146 2 300 23 321 13 13 35 14 136 9 112 -5
124 -4 166 17 43 21 45 24 48 69 2 37 -1 51 -17 67 -19 19 -33 21 -175 21
-124 0 -158 3 -169 15 -20 20 -18 225 2 249 11 14 44 16 216 16 235 0 236 0
229 84 -3 27 -9 55 -15 63 -9 10 -74 13 -309 13 -163 0 -300 -3 -303 -7z"/>
<path d="M4131 10807 c-11 -14 -17 -1039 -6 -1057 8 -13 111 -13 134 0 17 8
18 28 20 207 1 188 3 199 22 216 13 10 38 17 64 17 35 0 48 -6 78 -35 21 -20
37 -44 37 -54 0 -10 9 -26 20 -36 11 -10 20 -25 20 -34 0 -9 9 -27 20 -41 11
-14 20 -34 20 -46 0 -11 9 -29 20 -39 11 -10 20 -27 20 -37 0 -11 9 -31 20
-45 11 -14 20 -34 20 -44 0 -25 10 -29 87 -34 87 -6 118 11 108 58 -4 18 -13
39 -20 47 -7 8 -34 56 -59 106 -26 50 -55 99 -66 109 -11 10 -20 28 -20 40 0
12 -11 32 -25 45 -14 13 -25 31 -25 40 0 17 39 60 54 60 12 0 86 78 86 90 0 6
7 22 16 36 12 18 18 57 22 139 l5 114 -73 76 c-48 48 -81 75 -95 75 -12 0 -34
9 -48 20 -23 19 -40 20 -235 20 -162 0 -212 -3 -221 -13z m409 -168 c57 -30
89 -76 97 -137 l6 -51 -56 -55 -55 -55 -111 3 c-70 2 -116 8 -126 16 -12 10
-15 37 -14 141 1 159 1 159 131 159 70 0 96 -4 128 -21z"/>
<path d="M5045 10810 c-8 -14 -9 -1046 0 -1059 10 -17 564 -10 582 7 16 17 17
114 1 130 -9 9 -70 12 -215 12 -190 0 -203 1 -213 19 -13 24 -13 231 -1 264
l10 25 137 -4 c75 -2 147 -1 159 2 13 3 37 26 55 50 36 51 34 73 -11 105 -27
19 -40 20 -185 18 -126 -2 -157 0 -165 12 -5 8 -9 66 -9 130 0 89 3 119 14
128 11 9 73 12 214 11 150 0 202 3 209 12 18 22 27 117 13 133 -10 13 -59 15
-301 15 -183 0 -290 -4 -294 -10z"/>
<path d="M6742 10804 c-18 -12 -22 -25 -22 -63 0 -68 12 -75 144 -81 105 -5
111 -6 123 -30 9 -18 11 -131 10 -448 -1 -256 2 -427 7 -433 14 -13 133 -11
142 3 4 6 8 207 10 446 2 386 4 436 18 451 13 13 34 15 107 13 49 -1 98 2 109
8 24 13 37 91 21 126 l-11 24 -318 0 c-271 0 -321 -2 -340 -16z"/>
<path d="M7565 10808 c-3 -7 -4 -249 -3 -538 l3 -525 270 -2 c149 -1 280 0
291 3 18 3 22 13 28 62 11 97 23 92 -208 92 -144 0 -205 3 -214 12 -19 19 -16
272 3 288 10 9 57 12 156 11 78 0 150 4 160 10 14 7 19 21 19 55 0 86 -48 106
-238 102 -59 -1 -96 2 -104 10 -14 14 -11 241 4 259 8 10 61 13 208 13 225 0
225 0 236 83 11 80 22 77 -313 77 -226 0 -295 -3 -298 -12z"/>
<path d="M10000 10587 l-35 -12 -5 -404 c-4 -327 -2 -407 8 -418 20 -19 117
-17 137 3 9 10 13 23 9 33 -3 9 -7 105 -8 215 -2 160 0 201 12 212 18 19 42 1
42 -31 0 -12 9 -34 20 -48 11 -14 20 -39 20 -55 0 -20 13 -47 40 -81 40 -51
69 -63 90 -38 26 31 60 89 60 104 0 9 21 58 47 110 74 146 78 138 80 -166 2
-196 5 -256 15 -262 22 -14 115 -10 131 5 20 20 13 804 -7 824 -11 11 -31 12
-92 5 -75 -8 -79 -9 -82 -34 -2 -15 -12 -35 -23 -45 -10 -9 -19 -27 -19 -39 0
-12 -8 -33 -19 -46 -10 -13 -22 -38 -25 -56 -4 -17 -14 -37 -21 -43 -8 -7 -17
-27 -21 -45 -7 -40 -35 -68 -57 -59 -17 6 -67 105 -67 133 0 9 -7 25 -15 35
-8 11 -15 35 -15 54 0 22 -9 48 -25 68 -14 18 -25 38 -25 43 0 17 -62 51 -90
50 -14 0 -41 -5 -60 -12z"/>
<path d="M8776 10583 c-31 -4 -50 -16 -107 -73 -38 -38 -69 -77 -69 -87 0 -10
-9 -33 -21 -52 -18 -31 -21 -51 -21 -215 -1 -169 0 -184 22 -231 13 -30 50
-77 91 -116 61 -59 73 -67 118 -72 69 -8 165 9 211 38 36 23 150 147 150 164
0 4 -10 23 -23 42 -19 28 -30 35 -64 37 -36 3 -44 -1 -59 -23 -10 -15 -38 -42
-62 -61 -62 -47 -115 -48 -160 -1 -18 18 -32 39 -32 45 0 7 -7 24 -16 37 -12
18 -18 58 -21 139 -5 106 -3 119 19 162 12 26 38 63 57 81 29 28 41 33 83 33
41 0 57 -6 103 -40 30 -22 62 -40 73 -40 21 0 72 49 72 71 0 22 -86 127 -117
142 -30 15 -162 26 -227 20z"/>
<path d="M9451 10582 c-19 -2 -48 -14 -64 -28 -16 -13 -32 -24 -37 -24 -18 0
-110 -135 -110 -161 0 -15 -7 -42 -15 -62 -8 -19 -16 -77 -19 -128 -4 -78 -1
-102 15 -138 10 -24 19 -55 19 -70 0 -51 86 -191 117 -191 9 0 25 -8 35 -17
46 -41 204 -31 283 19 45 28 59 43 86 91 67 117 64 102 63 252 0 106 -5 158
-20 215 -18 71 -23 79 -100 157 l-82 81 -68 4 c-38 1 -85 2 -103 0z m146 -198
c18 -22 35 -48 38 -59 2 -11 11 -50 19 -86 20 -82 20 -140 1 -186 -8 -19 -15
-47 -15 -61 0 -16 -13 -39 -32 -59 -29 -30 -38 -33 -89 -33 -56 0 -59 1 -93
44 -20 23 -36 54 -36 67 -1 13 -7 35 -15 49 -20 35 -20 176 0 214 8 15 15 40
15 54 0 17 14 40 38 65 35 37 40 38 87 34 42 -4 54 -10 82 -43z"/>
<path d="M1450 8009 c-96 -4 -197 -13 -225 -18 -27 -6 -59 -12 -69 -13 -12 -2
-31 -23 -47 -52 l-27 -50 4 -935 c4 -1160 11 -1931 25 -2790 12 -711 10 -695
61 -722 26 -14 563 -24 723 -14 l120 7 49 50 c48 50 48 51 42 102 -26 233 -46
1759 -23 1790 10 13 60 16 349 20 l338 4 45 29 c29 18 48 39 56 61 17 50 3
659 -17 730 -27 95 1 89 -420 84 -341 -4 -370 -3 -384 13 -12 14 -14 81 -13
403 1 356 3 387 19 399 14 10 107 13 413 13 437 0 454 2 499 60 l25 32 -2 355
-2 355 -25 49 -25 50 -657 -3 c-361 -1 -736 -5 -832 -9z m1341 -201 c20 -7 30
-20 37 -51 6 -22 8 -45 5 -50 -3 -5 -5 -70 -5 -144 2 -144 -9 -216 -36 -246
-15 -17 -40 -18 -453 -15 l-438 3 -31 -30 -31 -29 3 -491 c3 -445 5 -493 20
-520 10 -16 18 -50 18 -75 0 -54 7 -65 44 -80 30 -11 680 -15 709 -4 8 3 22
-2 31 -11 13 -13 16 -39 16 -133 0 -65 4 -131 9 -147 10 -37 -1 -181 -15 -195
-19 -19 -384 -28 -601 -15 l-121 7 -38 -28 -37 -29 7 -655 c4 -360 11 -722 16
-805 21 -323 23 -414 10 -430 -11 -13 -54 -15 -295 -15 -214 0 -285 3 -293 12
-10 12 -13 91 -27 638 -3 118 -8 287 -11 375 -2 88 -7 824 -10 1636 -5 1448
-4 1476 15 1500 19 23 22 24 242 29 414 10 1233 9 1260 -2z"/>
<path d="M8792 7320 c-18 -11 -39 -20 -46 -20 -8 0 -36 -24 -61 -52 l-47 -53
8 -555 c4 -305 9 -654 9 -775 2 -313 14 -1468 21 -1940 6 -444 3 -425 77 -473
l42 -27 185 1 c150 0 192 4 224 17 21 9 48 17 61 17 24 0 40 16 69 69 17 30
18 61 20 325 1 281 2 291 20 291 22 0 105 -99 106 -126 0 -9 10 -24 21 -35 28
-25 139 -194 139 -211 0 -7 4 -13 9 -13 8 0 91 -112 101 -136 9 -23 134 -146
175 -173 37 -24 47 -26 136 -23 81 2 104 6 141 27 77 43 148 153 148 228 0 61
-66 213 -125 286 -19 24 -32 48 -29 53 4 5 -5 22 -18 36 -14 15 -34 43 -44 62
-10 19 -38 57 -61 85 -24 27 -43 53 -43 58 0 4 -25 42 -55 82 -30 41 -55 78
-55 81 0 3 -27 35 -60 71 -33 36 -60 71 -60 78 0 7 -19 37 -42 66 -24 30 -49
63 -56 74 -7 11 -21 34 -33 50 -12 18 -18 40 -15 55 16 83 27 122 45 151 12
19 21 43 21 55 0 11 7 29 15 40 8 10 15 29 15 42 0 12 8 30 19 41 10 10 21 30
25 44 3 14 12 32 20 39 7 8 17 28 20 45 4 18 14 37 22 44 8 6 14 17 14 23 0 6
12 34 25 61 14 28 25 58 25 67 0 9 4 19 9 23 11 6 71 123 71 139 0 6 9 22 20
36 11 14 20 31 20 39 0 8 7 22 16 32 8 9 17 31 19 49 3 18 11 40 19 49 8 9 19
34 25 56 6 22 18 49 26 59 8 11 15 32 15 47 0 14 6 32 14 38 8 7 17 31 21 54
4 23 13 60 21 82 10 28 14 70 12 139 l-3 98 -45 19 c-58 23 -264 26 -325 4
-22 -8 -53 -14 -70 -15 -43 0 -124 -65 -155 -124 -14 -27 -36 -59 -48 -73 -12
-14 -22 -33 -22 -43 0 -9 -9 -29 -20 -43 -11 -14 -20 -32 -20 -40 0 -23 -122
-259 -138 -264 -7 -3 -17 -2 -21 3 -5 5 -11 227 -15 494 -6 522 -10 634 -28
807 -10 106 -13 114 -42 142 -47 45 -126 61 -302 61 -131 0 -153 -2 -182 -20z
m334 -164 l29 -24 5 -879 5 -878 22 -30 c37 -52 79 -86 96 -79 19 7 62 61 71
90 3 12 15 29 26 39 11 10 20 25 20 34 0 9 6 25 14 36 7 11 16 33 20 50 4 16
12 35 16 41 5 5 33 57 63 115 29 57 58 113 64 124 6 11 25 50 42 87 17 37 36
70 41 73 6 3 10 13 10 22 0 9 11 30 24 47 13 18 25 39 27 48 2 9 31 49 65 90
52 63 69 76 114 91 142 46 178 -13 100 -166 -22 -43 -40 -86 -40 -95 0 -9 -9
-28 -20 -42 -11 -14 -20 -34 -20 -45 0 -11 -9 -31 -20 -45 -11 -14 -20 -32
-20 -41 0 -9 -9 -28 -20 -42 -11 -14 -20 -32 -20 -40 0 -8 -9 -26 -20 -40 -11
-14 -20 -36 -20 -49 0 -13 -11 -39 -25 -58 -14 -19 -25 -39 -25 -46 0 -7 -8
-27 -17 -46 -9 -18 -19 -40 -23 -48 -8 -17 -28 -57 -42 -80 -4 -8 -13 -26 -19
-40 -6 -14 -16 -34 -22 -45 -39 -73 -67 -130 -67 -140 0 -7 -9 -24 -20 -38
-11 -14 -20 -33 -20 -44 0 -10 -9 -33 -20 -51 -11 -18 -20 -43 -20 -56 0 -13
-9 -35 -20 -49 -24 -31 -28 -108 -5 -127 8 -7 15 -19 15 -27 0 -8 11 -29 25
-47 14 -18 25 -39 25 -45 0 -7 18 -33 40 -58 22 -25 40 -50 40 -56 0 -6 26
-42 58 -81 32 -39 70 -89 84 -111 15 -22 41 -59 58 -83 16 -23 30 -45 30 -47
0 -3 18 -28 40 -57 22 -29 40 -58 40 -64 0 -6 9 -19 20 -29 11 -10 32 -39 46
-64 15 -25 44 -67 66 -92 21 -26 38 -53 38 -61 0 -8 9 -23 20 -33 11 -10 20
-25 20 -32 0 -8 9 -26 20 -40 42 -54 16 -133 -44 -133 -78 0 -177 76 -263 201
-21 31 -55 78 -76 105 -69 90 -157 212 -157 219 0 4 -20 30 -45 58 -25 29 -45
55 -45 60 0 4 -18 32 -40 61 -22 29 -40 57 -40 63 0 5 -20 33 -45 62 -25 29
-45 56 -45 61 0 4 -12 15 -26 25 -34 22 -63 14 -111 -30 l-38 -35 -3 -412 c-2
-278 -6 -416 -14 -425 -15 -19 -227 -18 -254 1 -21 16 -23 71 -38 880 -4 170
-8 311 -10 315 -7 11 -17 2271 -11 2292 13 40 57 55 164 58 92 2 101 0 127
-23z"/>
<path d="M4055 6081 c-22 -11 -49 -20 -61 -21 -11 0 -29 -9 -39 -20 -10 -11
-27 -20 -37 -20 -11 0 -39 -18 -63 -41 -59 -56 -106 -89 -125 -89 -8 0 -31 11
-50 24 -43 29 -146 44 -240 35 -36 -4 -96 -7 -135 -8 -59 -2 -78 -7 -123 -34
-46 -27 -58 -41 -78 -90 l-25 -59 3 -1001 c2 -794 6 -1007 16 -1025 7 -12 16
-74 19 -139 9 -162 3 -158 215 -167 90 -4 216 -7 282 -7 109 1 123 3 173 28
94 47 87 -18 85 772 -3 688 -2 698 18 723 11 15 20 34 20 43 0 9 34 49 75 89
65 65 83 76 147 96 40 13 82 29 93 36 11 6 56 15 100 19 55 5 87 13 104 26 13
10 33 19 45 19 30 0 72 42 97 96 20 44 20 48 4 87 -15 36 -17 80 -17 287 0
272 -2 285 -68 323 -34 20 -56 23 -260 32 -122 5 -139 4 -175 -14z m283 -188
c13 -8 22 -23 22 -39 0 -13 7 -41 15 -61 11 -26 15 -73 15 -174 l0 -138 -36
-27 c-26 -20 -50 -29 -92 -32 -58 -4 -175 -43 -203 -68 -8 -8 -20 -14 -26 -14
-29 0 -113 -54 -159 -102 -59 -62 -114 -132 -114 -145 0 -6 -9 -18 -20 -28
-11 -10 -20 -27 -20 -37 0 -11 -9 -39 -20 -64 -20 -43 -21 -62 -19 -502 1
-299 6 -519 16 -637 13 -169 13 -180 -3 -192 -13 -9 -61 -13 -161 -13 -156 0
-190 8 -233 55 l-25 27 0 1008 c0 660 3 1012 10 1018 6 5 63 12 127 16 l117 6
36 -31 35 -31 0 -104 0 -103 33 -25 c49 -37 95 -35 134 7 29 29 32 38 32 100
0 48 6 76 18 95 10 15 27 44 38 65 34 67 132 143 230 178 37 13 228 7 253 -8z"/>
<path d="M7440 6000 c-14 -11 -41 -20 -60 -20 -28 0 -46 -10 -90 -50 -58 -53
-135 -110 -149 -110 -5 0 -15 7 -22 16 -7 9 -22 20 -34 25 -37 18 -66 36 -89
58 -19 18 -34 21 -112 21 -49 0 -107 -5 -129 -11 -22 -6 -63 -14 -91 -19 -49
-8 -94 -28 -94 -42 0 -3 -12 -20 -26 -37 l-26 -31 4 -915 c3 -904 3 -914 -17
-929 -13 -10 -30 -14 -49 -10 -46 10 -123 62 -135 92 -15 36 -31 273 -31 452
1 80 -4 213 -9 295 -5 83 -10 228 -11 323 0 128 -4 183 -15 208 -8 20 -17 59
-20 87 -7 59 -41 135 -100 222 -11 17 -27 42 -34 57 -21 41 -157 167 -189 174
-15 4 -43 15 -62 26 -19 10 -45 18 -57 18 -13 0 -40 9 -60 20 -36 19 -57 20
-401 20 -343 0 -365 -1 -402 -20 -22 -11 -48 -20 -58 -20 -28 0 -89 -51 -101
-83 -6 -15 -11 -136 -12 -268 -1 -275 -4 -268 86 -289 43 -10 65 -11 112 -1
38 8 115 12 213 9 144 -3 159 -5 212 -30 35 -17 81 -51 118 -89 58 -60 60 -64
60 -114 0 -42 -6 -60 -29 -92 -39 -54 -88 -62 -179 -27 -78 29 -117 30 -157 4
-16 -11 -37 -20 -45 -20 -8 0 -28 -7 -44 -15 -15 -8 -39 -15 -51 -15 -12 0
-47 -20 -77 -45 -30 -25 -59 -45 -65 -45 -14 0 -113 -98 -124 -123 -7 -19 -59
-97 -87 -132 -27 -35 -62 -108 -62 -129 0 -14 -8 -45 -17 -68 -14 -33 -18 -72
-18 -168 0 -96 4 -135 18 -168 9 -23 17 -58 17 -76 0 -18 7 -39 15 -46 8 -6
17 -22 21 -33 34 -116 168 -265 295 -329 41 -21 90 -40 109 -44 19 -3 52 -12
73 -20 54 -20 301 -19 341 1 15 8 38 15 50 15 11 0 36 9 54 20 18 11 38 20 46
20 7 0 21 9 31 20 10 11 28 20 40 20 11 0 36 11 55 25 19 14 43 25 54 25 12 0
46 -23 76 -51 30 -28 71 -57 90 -66 19 -8 42 -21 50 -28 8 -7 47 -20 85 -28
63 -14 77 -15 127 -2 91 24 120 41 179 102 69 71 79 89 79 146 0 42 21 79 36
64 14 -14 54 -145 54 -177 1 -36 34 -83 82 -113 33 -22 291 -30 433 -15 l109
12 42 43 c25 26 44 55 47 75 3 18 5 322 5 675 l-1 643 42 54 c49 66 108 96
188 96 80 0 144 -46 187 -134 19 -39 28 -80 37 -176 14 -152 27 -574 28 -921
1 -248 2 -257 24 -289 50 -74 54 -75 293 -76 243 -1 270 5 322 74 l27 36 -1
825 c0 658 -3 835 -14 871 -7 25 -16 77 -20 115 -10 92 -34 181 -54 204 -9 10
-16 25 -16 34 0 9 -5 19 -10 22 -6 4 -28 34 -50 68 -61 94 -183 213 -260 253
-70 37 -90 48 -132 76 -24 16 -52 18 -235 18 -191 0 -210 -2 -233 -20z m391
-194 c13 -9 33 -16 45 -16 12 0 33 -9 47 -20 14 -11 31 -20 39 -20 7 0 49 -35
93 -77 81 -79 145 -178 145 -225 0 -13 9 -36 20 -53 11 -16 20 -46 20 -66 0
-20 9 -69 19 -110 18 -70 19 -126 23 -817 3 -731 3 -742 -17 -761 -17 -17 -37
-20 -137 -22 -96 -3 -121 0 -134 12 -24 25 -32 156 -34 604 -3 566 -4 588 -24
616 -9 13 -16 41 -16 62 0 25 -8 49 -25 71 -14 18 -25 39 -25 47 0 17 -90 109
-108 109 -7 0 -30 9 -52 20 -33 17 -59 20 -167 20 -125 0 -128 -1 -197 -35
-39 -19 -82 -45 -96 -58 -43 -39 -90 -104 -90 -126 0 -11 -9 -44 -20 -72 -20
-51 -21 -69 -19 -652 1 -494 -1 -601 -12 -608 -8 -5 -36 -9 -64 -10 -27 0 -97
-3 -154 -5 -87 -3 -108 -1 -123 13 -10 9 -18 22 -18 30 0 8 -7 27 -15 43 -12
24 -16 116 -20 562 -3 293 -10 646 -16 783 -10 228 -6 537 7 642 3 28 12 47
24 53 11 6 65 7 144 2 100 -7 129 -12 146 -27 21 -19 26 -54 11 -70 -17 -18
-32 -152 -20 -178 27 -59 110 -51 143 14 9 19 20 41 25 49 5 8 14 26 20 40 25
53 41 76 78 111 53 51 141 109 165 109 11 0 29 5 41 12 40 21 90 27 209 24 87
-3 122 -8 139 -20z m-2131 -88 c71 -26 119 -50 165 -82 47 -32 95 -79 95 -91
0 -7 9 -20 20 -30 11 -10 20 -30 20 -45 0 -15 9 -35 20 -45 11 -10 20 -30 20
-44 0 -15 6 -35 14 -46 21 -32 26 -66 27 -197 0 -67 5 -152 10 -188 4 -36 13
-249 19 -475 10 -362 14 -415 30 -450 10 -22 23 -51 30 -65 26 -57 43 -81 88
-120 58 -51 102 -108 102 -132 0 -21 -42 -83 -74 -110 -38 -32 -93 -23 -236
39 -19 8 -68 50 -108 94 -41 43 -79 79 -86 79 -19 0 -81 -34 -124 -68 -22 -18
-45 -32 -51 -32 -7 0 -34 -11 -61 -25 -27 -14 -57 -25 -67 -25 -10 0 -31 -9
-48 -20 -27 -18 -47 -20 -195 -20 -148 0 -168 2 -190 20 -14 11 -34 20 -44 20
-37 0 -142 81 -170 129 -6 11 -24 41 -39 68 -16 26 -31 62 -34 78 -3 17 -12
40 -20 53 -36 58 -36 331 0 383 10 13 17 34 17 47 0 16 26 49 83 105 101 102
142 133 187 142 19 4 46 14 60 23 21 14 55 17 215 17 186 0 191 1 223 24 38
29 98 100 132 155 l23 38 -17 101 c-11 70 -22 107 -36 122 -11 12 -20 28 -20
36 0 8 -9 25 -20 39 -11 14 -20 32 -20 40 0 18 -109 130 -127 130 -7 0 -36 15
-65 32 l-53 33 -207 5 c-151 4 -211 9 -220 18 -9 9 -13 42 -13 100 0 104 18
146 68 161 19 6 146 9 322 6 276 -3 293 -5 355 -27z"/>
<path d="M5336 4503 c-60 -4 -75 -8 -110 -36 -23 -17 -47 -36 -55 -42 -33 -24
-82 -81 -86 -100 -34 -179 -34 -182 -19 -230 8 -27 14 -58 14 -70 0 -31 94
-135 151 -167 43 -25 58 -28 141 -28 63 0 102 5 122 15 15 8 46 15 67 15 32 0
48 8 83 40 24 23 52 57 61 78 10 20 23 44 30 52 18 22 28 126 20 214 l-7 75
-66 70 c-36 39 -72 71 -80 71 -7 0 -26 8 -40 19 -30 20 -115 29 -226 24z m141
-182 c45 -33 83 -77 83 -98 0 -7 10 -27 22 -43 20 -28 20 -31 5 -48 -9 -10
-17 -22 -17 -27 0 -13 -72 -89 -102 -107 -18 -11 -48 -18 -80 -18 -48 0 -54 3
-105 53 l-53 54 0 70 c0 61 4 75 29 110 46 63 77 83 131 83 36 0 56 -7 87 -29z"/>
<path d="M10640 3995 c-44 -16 -80 -37 -112 -68 l-48 -46 0 -136 c0 -151 8
-183 64 -243 68 -73 182 -93 279 -48 60 27 86 60 110 133 22 67 23 207 2 247
-8 15 -15 40 -15 55 0 18 -12 38 -37 62 -82 75 -131 84 -243 44z m123 -167
c19 -23 31 -52 34 -80 4 -38 1 -49 -29 -88 -41 -54 -65 -60 -106 -25 -37 31
-48 84 -32 146 25 93 80 113 133 47z"/>
</g>
</svg>
