<?xml version="1.0" standalone="no"?>
<!DOCTYPE svg PUBLIC "-//W3C//DTD SVG 20010904//EN"
 "http://www.w3.org/TR/2001/REC-SVG-20010904/DTD/svg10.dtd">
<svg version="1.0" xmlns="http://www.w3.org/2000/svg"
 width="1164.000000pt" height="1348.000000pt" viewBox="0 0 1164.000000 1348.000000"
 preserveAspectRatio="xMidYMid meet">

<g transform="translate(0.000000,1348.000000) scale(0.100000,-0.100000)"
fill="#000000" stroke="none">
<path d="M5597 13046 c-14 -18 -29 -46 -33 -62 -4 -16 -15 -40 -26 -53 -10
-13 -18 -33 -18 -45 0 -11 -9 -32 -20 -46 -11 -14 -20 -35 -20 -46 0 -12 -7
-27 -14 -34 -8 -6 -20 -27 -26 -45 -15 -46 -66 -57 -250 -55 -226 3 -214 5
-228 -33 -24 -66 -20 -73 121 -209 72 -71 142 -133 154 -138 12 -5 29 -20 38
-34 15 -22 14 -30 -10 -117 -15 -52 -35 -112 -45 -134 -15 -35 -26 -71 -57
-193 -7 -27 39 -82 69 -82 26 0 95 38 149 83 26 20 52 37 58 37 7 0 34 18 60
40 26 22 54 40 63 40 9 0 21 7 29 16 7 8 26 22 42 30 40 21 114 2 189 -48 32
-21 61 -38 64 -38 4 0 27 -15 53 -33 25 -18 60 -39 78 -46 18 -7 38 -19 44
-27 18 -22 102 -18 124 6 21 23 16 90 -10 140 -8 16 -15 51 -15 77 0 36 -10
68 -40 127 -22 44 -40 85 -40 91 0 16 123 131 174 163 23 14 74 57 114 96 67
66 72 73 72 113 0 31 -4 43 -17 46 -68 19 -127 28 -146 23 -37 -10 -360 14
-382 29 -11 7 -28 30 -38 51 -10 22 -27 56 -38 76 -10 20 -19 47 -19 58 0 12
-9 33 -20 47 -11 14 -20 33 -20 42 0 9 -9 27 -20 41 -11 14 -20 30 -20 37 0
18 -41 43 -71 43 -18 0 -34 -10 -52 -34z"/>
<path d="M4267 12514 c-1 -1 -693 -3 -1537 -4 -1769 -2 -1784 -2 -1866 -70
-56 -46 -84 -88 -114 -165 -21 -58 -22 -72 -26 -520 -3 -253 -6 -2784 -7
-5625 l-2 -5165 23 -42 c12 -23 22 -52 22 -64 0 -29 44 -86 72 -95 13 -4 34
-15 47 -25 13 -11 36 -19 51 -19 15 0 45 -8 66 -17 37 -17 291 -18 4817 -21
4382 -2 4784 -1 4850 14 40 9 90 19 112 22 22 2 53 15 68 28 16 13 33 24 38
24 5 0 34 34 64 74 46 63 55 82 55 118 0 24 4 61 9 83 5 22 12 279 15 570 8
657 9 5703 2 6555 -3 344 -8 1118 -11 1720 -8 1810 -15 2361 -30 2392 -7 15
-16 41 -20 56 -3 16 -29 54 -56 86 -45 50 -55 56 -90 56 -21 0 -56 9 -77 20
-37 20 -52 20 -1959 20 l-1922 -1 -31 -25 c-28 -24 -30 -30 -30 -95 0 -61 3
-73 25 -94 l24 -25 548 0 c301 0 1134 0 1850 0 1299 0 1303 0 1393 -21 90 -22
91 -22 125 -73 l33 -51 4 -5552 3 -5552 -21 -27 c-11 -15 -36 -40 -55 -56
l-34 -27 -4830 -3 -4830 -3 -33 23 c-17 13 -43 38 -57 56 l-25 33 0 4019 c1
4427 6 7025 16 7094 8 61 30 100 56 100 11 0 35 9 53 20 33 20 43 21 1784 20
l1751 0 26 42 c34 54 43 112 19 138 -39 43 -83 54 -223 55 -72 1 -133 1 -135
-1z"/>
<path d="M7355 10583 c-38 -8 -95 -17 -125 -21 -30 -4 -66 -15 -80 -25 -13 -9
-39 -17 -58 -17 -42 0 -122 -31 -284 -110 -38 -18 -68 -37 -68 -41 0 -5 -6 -9
-13 -9 -15 0 -162 -115 -189 -149 -10 -12 -24 -21 -32 -21 -14 0 -66 71 -66
91 0 22 -95 138 -122 150 -15 6 -34 19 -44 30 -9 10 -22 19 -29 19 -6 0 -30 9
-53 20 -22 11 -61 20 -84 20 -24 0 -61 -9 -83 -20 -22 -11 -49 -20 -60 -20
-27 0 -176 -150 -208 -210 -48 -88 -155 -306 -167 -340 -7 -19 -17 -52 -23
-72 -18 -63 -56 -47 -48 20 1 7 -7 24 -18 39 -12 14 -21 34 -21 44 0 11 -9 36
-20 56 -11 21 -20 54 -20 73 0 19 -7 44 -16 55 -8 11 -19 36 -24 57 -6 20 -17
44 -25 52 -8 8 -15 21 -15 29 0 8 -18 37 -40 65 -22 27 -40 55 -40 60 0 22
-154 111 -193 112 -10 0 -28 5 -39 11 -16 9 -35 8 -77 -1 -31 -6 -65 -13 -76
-15 -60 -11 -217 -153 -270 -244 -18 -30 -37 -51 -47 -51 -10 0 -18 5 -18 10
0 14 -52 84 -103 139 -110 117 -188 150 -362 150 -73 1 -96 -3 -120 -19 -16
-11 -41 -20 -55 -20 -14 0 -36 -9 -50 -20 -14 -11 -31 -20 -38 -20 -8 0 -25
-9 -39 -20 -14 -11 -34 -20 -43 -20 -10 0 -23 -7 -30 -15 -7 -9 -27 -22 -45
-31 -41 -19 -200 -173 -250 -241 -39 -53 -105 -113 -124 -113 -6 0 -21 21 -33
47 -14 30 -63 88 -136 160 -62 62 -117 113 -122 113 -4 0 -36 16 -69 34 -57
32 -117 53 -216 76 -103 23 -422 -3 -498 -41 -29 -15 -50 -25 -102 -49 -67
-31 -66 -30 -119 -67 -26 -18 -50 -33 -54 -33 -10 0 -232 -226 -233 -236 0 -5
-15 -29 -34 -54 -19 -25 -46 -67 -60 -95 -15 -27 -33 -57 -39 -65 -24 -29 -66
-120 -66 -142 0 -13 -9 -34 -20 -48 -11 -14 -20 -40 -20 -57 0 -18 -9 -47 -20
-65 -14 -23 -20 -51 -20 -93 0 -33 -7 -95 -15 -138 -19 -101 -19 -312 0 -392
8 -33 14 -74 15 -90 0 -17 9 -47 20 -68 11 -20 20 -47 20 -59 0 -13 9 -36 20
-53 11 -16 20 -42 20 -56 0 -15 9 -38 20 -52 11 -14 20 -30 20 -37 0 -7 9 -24
21 -38 79 -103 80 -105 73 -136 -4 -20 -44 -70 -110 -140 -60 -63 -104 -118
-104 -130 0 -11 -7 -28 -17 -38 -9 -10 -20 -37 -24 -61 -4 -23 -15 -62 -24
-86 -24 -67 -20 -328 6 -390 10 -24 19 -51 19 -60 0 -9 8 -32 19 -51 10 -19
22 -46 26 -59 4 -13 23 -51 43 -84 42 -73 247 -287 274 -287 10 0 37 -9 59
-20 21 -11 57 -29 78 -40 22 -11 51 -20 64 -20 13 0 32 -9 42 -20 12 -13 31
-20 54 -20 20 0 65 -9 99 -20 54 -17 92 -20 246 -20 162 0 185 2 219 20 20 11
54 20 74 20 22 0 48 9 63 20 14 11 31 20 38 20 8 0 47 18 88 40 41 22 81 40
88 40 7 0 21 9 31 20 10 11 26 20 35 20 9 0 81 65 159 145 78 80 144 145 146
145 3 0 10 -11 17 -24 26 -49 127 -146 153 -146 13 0 27 -4 30 -10 11 -18 110
-63 160 -73 64 -12 235 -14 300 -3 28 5 62 17 77 27 14 11 31 19 38 19 6 0 23
9 37 20 14 11 33 20 42 20 9 0 27 9 41 20 14 11 32 20 40 20 9 0 34 18 55 40
24 25 48 40 63 40 14 0 45 -18 72 -40 26 -22 53 -40 59 -40 6 0 29 -10 52 -22
115 -60 357 -52 494 15 78 38 165 103 165 123 0 9 8 28 18 42 62 95 102 186
102 231 0 60 23 52 58 -21 79 -165 325 -368 445 -368 19 0 56 -7 82 -15 27 -8
51 -12 54 -10 4 2 25 0 48 -4 33 -7 49 -4 73 10 17 11 44 19 60 19 35 0 104
35 163 84 24 20 49 36 56 36 6 0 22 7 36 16 30 20 43 13 114 -60 80 -83 194
-122 265 -92 21 9 47 16 58 16 11 0 31 9 45 20 14 11 35 20 46 20 22 0 237
213 237 236 0 7 13 34 29 61 16 26 39 68 52 92 38 70 52 73 95 21 20 -25 75
-82 123 -127 74 -72 90 -83 121 -83 19 0 46 -9 60 -20 15 -12 41 -20 65 -20
22 0 51 -7 65 -15 33 -19 99 -19 143 0 20 8 60 15 89 15 35 0 64 7 86 20 18
11 42 20 53 20 12 0 32 9 46 20 14 11 31 20 38 20 7 0 40 18 73 40 33 22 64
40 70 40 6 0 56 -45 113 -100 57 -55 106 -100 110 -100 4 0 36 -16 71 -36 70
-40 121 -60 188 -76 25 -6 56 -18 70 -28 65 -45 453 -43 523 3 14 9 41 17 59
17 18 0 44 9 58 20 14 11 32 20 41 20 9 0 22 7 30 16 7 8 36 31 64 50 66 43
215 187 215 207 0 9 11 29 25 45 14 17 25 34 25 38 0 5 18 33 40 62 22 29 40
59 40 66 0 7 7 19 15 26 20 17 105 189 105 214 0 12 9 32 20 46 11 14 20 37
20 52 0 15 9 42 20 60 13 21 20 51 20 83 1 28 9 67 20 90 11 23 19 62 20 90 0
28 9 74 20 103 11 29 20 76 20 106 0 32 8 71 20 97 13 31 20 66 20 115 0 43 6
87 16 110 12 28 18 80 21 184 2 80 8 165 13 190 17 87 19 127 20 360 1 182 -3
248 -15 293 -8 32 -15 69 -15 82 0 13 -4 26 -9 29 -5 3 -18 26 -30 51 -12 25
-37 63 -57 85 -28 31 -45 40 -82 46 -26 4 -63 13 -82 20 -19 8 -73 15 -118 17
-69 3 -88 0 -107 -15 -13 -10 -37 -18 -55 -18 -20 0 -49 -13 -85 -40 -56 -41
-135 -135 -135 -161 0 -8 -9 -25 -20 -39 -11 -14 -20 -41 -20 -60 0 -19 -9
-46 -20 -60 -12 -16 -20 -41 -20 -68 0 -23 -9 -59 -20 -79 -11 -21 -20 -55
-20 -76 0 -21 -7 -52 -16 -69 -9 -17 -20 -54 -24 -82 -5 -28 -15 -69 -24 -91
-8 -22 -15 -63 -16 -91 0 -28 -9 -84 -20 -125 -11 -41 -20 -86 -20 -100 0 -15
-9 -46 -20 -70 -12 -27 -20 -66 -20 -101 0 -73 -33 -111 -68 -76 -20 20 -15
186 8 260 12 40 20 91 20 141 0 43 6 92 14 111 7 18 17 71 21 117 3 46 15 110
26 142 13 40 19 85 19 150 0 50 6 112 14 137 7 25 17 81 21 126 6 70 4 87 -13
120 -10 21 -22 59 -25 84 -12 94 -90 189 -202 249 -51 26 -71 31 -131 31 -56
0 -77 -4 -97 -20 -14 -11 -33 -20 -44 -20 -10 0 -29 -9 -43 -20 -14 -11 -32
-20 -40 -20 -24 -1 -280 -258 -280 -281 0 -5 -15 -31 -34 -57 -18 -27 -36 -57
-40 -69 -4 -11 -15 -28 -26 -38 -11 -10 -20 -28 -20 -40 0 -12 -9 -30 -20 -40
-11 -10 -20 -29 -20 -42 0 -13 -9 -40 -20 -60 -11 -21 -20 -52 -20 -70 0 -18
-9 -47 -20 -65 -17 -28 -20 -51 -20 -143 0 -127 -7 -146 -42 -123 -12 8 -45
18 -72 21 -27 4 -58 15 -69 25 -17 15 -43 17 -196 18 -153 1 -176 3 -179 17
-3 14 12 36 98 149 11 14 20 32 20 40 0 7 9 24 20 38 11 14 20 32 20 40 0 8 9
26 20 40 11 14 20 40 20 58 0 18 9 50 20 72 18 35 20 59 20 204 0 142 -3 173
-20 218 -11 29 -20 63 -20 76 0 13 -11 38 -25 56 -14 18 -25 37 -25 42 0 13
-93 104 -106 104 -5 0 -26 11 -47 25 -37 26 -40 26 -205 24 -93 -1 -198 -8
-237 -16z m309 -179 c38 -6 54 -15 91 -53 25 -25 45 -54 45 -64 0 -11 9 -30
20 -44 18 -23 20 -41 20 -195 0 -126 -4 -176 -14 -196 -8 -15 -18 -46 -22 -67
-4 -22 -15 -51 -25 -64 -11 -13 -19 -31 -19 -39 0 -9 -18 -37 -40 -63 -22 -26
-40 -51 -40 -55 0 -14 -115 -148 -200 -233 -114 -114 -200 -243 -200 -300 0
-17 -9 -46 -21 -66 -20 -33 -22 -56 -30 -353 -4 -174 -13 -364 -19 -422 -5
-58 -10 -175 -9 -260 0 -132 -3 -163 -21 -210 -11 -30 -20 -64 -20 -75 0 -11
-9 -31 -20 -45 -11 -14 -20 -32 -20 -41 0 -9 -6 -22 -14 -28 -8 -7 -26 -36
-40 -65 -15 -31 -55 -81 -99 -124 l-74 -71 -136 2 -137 3 -40 39 c-40 39 -54
85 -30 100 6 3 10 16 10 29 0 13 9 31 20 41 15 13 20 31 20 65 0 26 9 69 21
95 19 42 20 62 17 184 -2 110 -6 141 -20 161 -10 13 -18 32 -18 42 0 21 -69
156 -99 195 -24 30 -27 75 -6 93 23 19 96 150 102 185 3 16 14 41 25 54 10 13
18 32 18 43 0 10 8 33 17 51 14 26 18 67 21 209 4 167 3 179 -17 211 -12 19
-21 40 -21 48 0 7 -23 37 -52 66 -45 45 -58 53 -90 53 -60 0 -67 20 -61 163 4
91 10 131 24 159 11 21 19 53 19 73 0 20 6 48 14 63 8 15 17 54 21 87 5 33 16
74 26 93 11 18 19 46 19 63 0 52 138 205 225 248 23 12 48 28 55 36 7 8 19 15
27 15 8 0 31 8 51 19 53 27 131 52 176 58 22 3 55 14 73 24 19 11 51 19 71 19
21 0 65 8 97 17 95 26 243 38 329 27z m-2548 -98 c33 -29 66 -66 74 -82 8 -16
22 -41 32 -56 10 -14 18 -34 18 -45 0 -10 9 -33 20 -51 11 -18 20 -42 20 -55
0 -12 9 -35 20 -52 11 -16 20 -46 20 -66 0 -20 8 -47 19 -60 10 -13 20 -47 23
-77 3 -29 12 -60 22 -70 9 -10 16 -34 16 -53 0 -19 9 -47 20 -64 11 -17 20
-47 20 -70 1 -55 48 -139 81 -143 39 -5 107 52 115 96 4 20 15 49 25 64 11 14
19 37 19 50 0 13 7 34 16 46 8 13 20 52 25 88 5 36 16 78 24 94 8 16 15 39 15
52 0 13 9 37 20 53 11 17 20 38 20 48 0 11 9 30 20 44 11 14 20 36 20 48 0 12
9 30 20 40 11 10 20 25 20 33 0 20 93 133 141 171 78 63 186 33 236 -65 13
-25 23 -52 23 -59 0 -8 10 -31 23 -52 21 -36 22 -47 20 -207 -2 -135 -7 -181
-23 -233 -11 -36 -20 -81 -20 -100 0 -18 -6 -46 -14 -61 -7 -15 -16 -58 -20
-95 -8 -86 -33 -148 -92 -234 -56 -80 -114 -190 -114 -216 0 -10 -7 -31 -15
-48 -11 -20 -17 -69 -20 -156 -4 -113 -2 -131 15 -161 11 -18 20 -39 20 -46 0
-7 9 -25 20 -39 11 -14 20 -30 20 -36 0 -24 61 -108 144 -197 26 -29 55 -63
64 -76 9 -13 29 -34 44 -46 16 -13 28 -32 28 -42 0 -10 7 -24 16 -31 41 -34
72 -155 76 -294 2 -76 -15 -205 -28 -216 -8 -6 -14 -17 -14 -23 0 -15 -34 -78
-77 -143 -72 -111 -165 -159 -325 -170 -85 -6 -146 10 -205 54 -17 12 -35 23
-38 23 -18 0 -119 104 -157 160 -51 79 -77 145 -88 227 -5 35 -15 82 -21 105
-8 28 -13 137 -14 316 -2 246 -4 274 -20 292 -20 22 -67 27 -83 7 -6 -6 -14
-26 -18 -42 -4 -17 -15 -47 -25 -67 -11 -21 -19 -51 -19 -68 0 -16 -9 -46 -19
-66 -11 -20 -22 -62 -26 -93 -3 -31 -10 -92 -16 -136 -10 -68 -9 -86 5 -119
23 -55 22 -176 -3 -224 -10 -20 -22 -51 -25 -69 -4 -18 -17 -51 -29 -74 -12
-23 -28 -53 -36 -68 -41 -79 -123 -135 -264 -181 -111 -37 -221 -17 -325 60
-30 22 -33 29 -27 59 3 18 10 38 15 45 5 6 23 27 40 47 16 20 30 43 30 52 0 8
7 20 15 27 8 6 17 22 21 33 4 12 15 33 25 46 11 13 19 33 19 45 0 12 8 33 17
46 13 18 21 63 29 162 13 148 5 225 -32 319 l-18 47 42 55 c23 31 42 59 42 62
0 4 9 18 20 32 11 14 20 32 20 40 0 8 9 26 20 40 11 14 20 37 20 51 0 14 7 33
16 43 9 10 20 48 24 86 5 38 14 81 19 97 16 40 13 204 -4 251 -8 22 -15 53
-15 69 0 28 -12 58 -69 175 -26 55 -112 152 -162 185 -28 18 -29 20 -49 166
-15 104 -3 322 20 380 10 25 21 58 25 74 3 16 31 64 61 107 29 43 54 82 54 86
0 16 96 103 141 128 72 40 106 34 175 -29z m-866 -6 c14 -11 30 -20 35 -20 29
-2 110 -99 121 -146 4 -16 14 -37 22 -47 10 -11 19 -52 24 -115 11 -123 11
-122 -3 -276 -13 -126 -12 -129 10 -171 35 -67 28 -79 -50 -85 -37 -3 -76 -12
-92 -22 -14 -10 -39 -18 -54 -18 -15 0 -39 -9 -53 -20 -14 -11 -32 -20 -41
-20 -33 0 -168 -133 -169 -165 0 -11 -7 -28 -15 -38 -24 -33 -28 -92 -9 -132
23 -49 115 -145 139 -145 11 0 31 -9 45 -20 14 -11 30 -20 36 -20 18 0 64 -40
64 -56 0 -7 -24 -42 -52 -76 -29 -35 -60 -76 -68 -93 -8 -16 -25 -44 -37 -61
-16 -22 -23 -45 -23 -78 0 -32 -7 -57 -21 -77 -18 -25 -19 -36 -12 -81 6 -37
14 -55 29 -63 11 -5 35 -24 54 -42 19 -17 45 -37 59 -44 15 -7 35 -21 46 -30
39 -32 168 -43 288 -24 71 11 76 0 77 -160 0 -112 -3 -136 -20 -168 -11 -20
-20 -46 -20 -58 0 -11 -9 -32 -20 -46 -11 -14 -20 -32 -20 -40 0 -14 -72 -117
-90 -128 -6 -3 -16 -21 -24 -39 -16 -39 -198 -222 -241 -243 -46 -22 -93 -49
-107 -60 -25 -20 -134 -45 -193 -44 -115 1 -227 23 -258 49 -20 18 -128 77
-169 93 -35 14 -35 31 1 84 16 24 32 54 36 67 4 12 16 37 26 54 11 17 19 45
19 62 0 18 9 46 20 64 11 18 20 48 20 66 0 18 8 47 17 65 25 45 25 295 1 425
-10 50 -18 102 -18 115 0 12 -9 39 -20 60 -11 20 -20 48 -20 61 0 13 -9 35
-20 49 -11 14 -20 32 -20 40 0 8 -9 26 -20 40 -11 14 -20 31 -20 38 0 7 -11
24 -24 38 -13 15 -33 43 -44 64 -32 61 -165 206 -229 250 -19 12 -33 31 -33
42 0 12 27 48 65 85 36 35 65 72 65 81 0 9 9 28 20 42 11 14 20 31 20 39 0 7
9 24 20 38 11 14 20 35 20 47 0 12 9 39 19 60 16 31 21 69 26 218 7 189 15
232 52 278 13 16 23 34 23 40 0 35 321 317 361 317 9 0 24 9 34 20 10 11 27
20 38 20 10 0 31 8 45 19 15 10 45 22 67 25 22 4 51 14 65 21 15 9 54 14 100
14 59 1 80 -4 100 -19z m-1486 -80 c18 -11 43 -20 54 -20 34 0 186 -113 235
-174 41 -52 107 -191 107 -224 0 -16 10 -51 21 -78 19 -41 21 -60 16 -143 -3
-55 -12 -112 -21 -133 -9 -21 -16 -49 -16 -62 0 -14 -9 -40 -20 -58 -11 -18
-20 -39 -20 -45 0 -16 -63 -115 -85 -133 -9 -8 -21 -24 -26 -37 -9 -24 -79
-73 -103 -73 -15 0 -58 51 -69 82 -7 20 -114 110 -187 157 -71 45 -132 52
-210 22 -30 -12 -63 -21 -73 -21 -30 0 -146 -94 -177 -144 -26 -41 -30 -56
-30 -119 1 -40 8 -90 16 -112 8 -22 21 -62 28 -88 16 -59 78 -126 133 -145 99
-34 214 -37 275 -6 15 8 46 14 70 15 29 0 60 10 93 30 72 42 170 89 185 89 23
0 151 -90 159 -113 5 -12 27 -42 48 -67 50 -56 153 -206 153 -221 0 -7 8 -30
19 -53 54 -118 64 -177 65 -390 0 -187 -1 -204 -22 -248 -12 -26 -22 -61 -22
-78 0 -18 -9 -43 -20 -57 -11 -14 -20 -36 -20 -48 0 -12 -8 -33 -17 -46 -10
-13 -27 -40 -37 -59 -18 -32 -105 -136 -166 -199 -68 -70 -208 -181 -228 -181
-5 0 -17 -9 -27 -20 -10 -11 -28 -20 -39 -20 -12 0 -32 -9 -46 -20 -14 -11
-33 -20 -43 -20 -10 0 -35 -9 -55 -19 -47 -25 -234 -43 -312 -31 -30 5 -84 9
-120 9 -38 1 -90 9 -123 21 -31 11 -62 20 -69 20 -7 0 -24 9 -38 20 -14 11
-34 20 -46 20 -11 0 -28 8 -37 18 -9 10 -37 28 -61 40 -51 26 -216 194 -216
221 0 10 -9 26 -20 36 -11 10 -20 25 -20 34 0 9 -9 30 -19 47 -11 18 -22 54
-26 80 -4 27 -13 67 -21 88 -17 45 -11 153 12 198 8 15 14 36 14 46 0 10 9 27
20 37 11 10 20 26 20 36 0 30 122 151 182 181 100 49 109 53 124 43 17 -11 40
-52 75 -130 12 -27 26 -59 31 -71 22 -49 169 -184 200 -184 7 0 23 -6 34 -14
71 -50 309 -51 363 -2 10 9 25 16 33 16 23 0 104 105 123 160 38 104 46 243
17 281 -11 13 -22 35 -26 49 -7 29 -46 74 -98 114 -28 21 -51 28 -100 32 -57
5 -88 1 -228 -26 -25 -5 -120 -12 -211 -15 l-166 -5 -50 40 c-28 22 -55 40
-59 40 -12 0 -84 73 -84 85 0 6 -18 36 -40 65 -22 29 -40 61 -40 69 0 9 -9 33
-20 54 -11 20 -20 51 -20 67 0 17 -10 50 -22 73 -20 40 -21 54 -20 270 2 189
5 233 18 259 9 18 19 62 22 98 3 42 11 73 23 89 11 13 19 36 19 51 0 15 6 33
14 39 8 7 17 23 20 37 4 14 21 50 39 81 18 30 37 63 43 73 66 118 230 278 358
350 31 18 59 36 62 41 3 5 21 9 40 9 19 0 47 8 61 18 34 22 140 31 296 27 97
-3 124 -8 151 -25z m6426 0 c16 -11 43 -50 59 -85 29 -61 31 -73 31 -178 0
-61 -5 -141 -10 -177 -6 -36 -17 -120 -25 -186 -7 -67 -21 -139 -29 -159 -9
-21 -16 -63 -16 -95 0 -32 -6 -75 -14 -96 -7 -22 -17 -88 -20 -149 -4 -60 -14
-138 -22 -173 -18 -81 -18 -146 1 -208 8 -27 15 -61 15 -75 0 -23 51 -102 90
-140 31 -30 88 -59 116 -59 31 0 74 24 74 41 0 6 9 22 20 36 11 14 20 35 20
47 0 12 8 32 17 46 9 13 20 42 24 64 9 46 44 151 60 180 6 10 13 44 16 75 3
31 14 73 24 93 13 25 19 59 19 102 0 42 7 78 20 107 11 24 20 67 20 94 0 28 9
68 20 90 11 23 19 62 20 92 0 34 7 64 20 85 11 18 20 49 20 68 0 19 9 46 20
60 12 15 20 41 20 66 0 31 8 49 33 80 19 21 39 48 45 60 31 60 168 107 243 85
53 -16 119 -94 143 -166 15 -50 18 -90 17 -280 0 -193 -13 -394 -26 -414 -2
-4 -7 -67 -10 -141 -4 -74 -14 -164 -22 -200 -8 -36 -18 -99 -22 -140 -4 -41
-15 -89 -24 -107 -10 -18 -17 -54 -17 -82 0 -33 -7 -62 -20 -83 -11 -18 -20
-48 -20 -66 0 -17 -9 -49 -20 -69 -14 -27 -20 -57 -20 -103 0 -48 -5 -73 -20
-95 -11 -16 -20 -41 -20 -55 0 -14 -9 -36 -20 -50 -11 -14 -20 -34 -20 -46 0
-11 -9 -29 -20 -39 -11 -10 -20 -26 -20 -36 0 -9 -14 -43 -31 -75 -120 -230
-248 -373 -389 -435 -14 -6 -43 -19 -65 -30 -22 -10 -56 -19 -76 -19 -20 0
-54 -7 -75 -16 -24 -10 -52 -14 -78 -10 -23 3 -90 11 -151 18 -71 9 -119 19
-135 31 -13 9 -40 17 -60 17 -19 0 -46 9 -60 20 -14 11 -31 20 -38 20 -7 0
-34 15 -60 33 -26 18 -59 38 -73 44 -14 6 -47 36 -73 66 -50 58 -51 74 -12
107 9 7 16 22 16 35 0 12 9 30 20 40 11 10 20 25 20 32 0 8 9 26 20 40 11 14
20 35 20 47 0 11 9 35 20 51 11 17 20 41 20 55 0 14 9 36 20 50 14 17 20 41
20 77 0 29 9 87 21 129 18 66 20 97 17 257 -2 149 -6 188 -20 216 -10 19 -18
55 -18 80 0 28 -8 59 -20 79 -11 18 -20 46 -20 63 0 17 -9 42 -20 56 -11 14
-20 33 -20 42 0 9 -9 27 -20 41 -11 14 -20 31 -20 38 0 7 -8 25 -18 40 -112
166 -105 151 -98 222 3 36 11 92 16 125 6 33 13 85 16 115 4 30 13 62 21 71 7
9 18 38 22 65 8 45 27 95 52 134 5 8 13 24 18 35 5 11 18 29 30 39 11 11 21
27 21 36 0 9 27 47 60 83 33 36 60 72 60 80 0 14 96 95 159 134 50 30 151 31
191 3z m-4630 -1000 c14 -11 32 -20 41 -20 22 0 119 -106 119 -130 0 -9 7 -34
15 -54 11 -26 16 -81 18 -198 2 -138 -1 -171 -16 -213 -56 -151 -67 -166 -171
-250 -42 -33 -57 -39 -100 -40 -28 0 -60 -6 -71 -12 -34 -18 -89 -23 -105 -10
-22 17 -50 64 -50 82 0 30 42 140 61 161 10 11 19 24 19 28 0 9 117 141 184
208 l49 49 -68 69 c-38 39 -78 70 -88 70 -10 0 -35 9 -57 20 -22 11 -48 20
-58 20 -11 0 -31 9 -45 20 -14 11 -31 20 -39 20 -20 0 -38 21 -38 44 0 26 88
116 115 116 11 0 31 9 45 20 21 16 41 20 120 20 79 0 99 -4 120 -20z m3475
-11 c22 -5 53 -9 68 -9 16 0 41 -8 55 -19 15 -10 39 -21 54 -25 15 -3 42 -19
60 -35 18 -15 43 -31 55 -35 28 -9 153 -142 153 -164 0 -9 9 -28 20 -42 11
-14 20 -32 20 -40 0 -8 9 -28 20 -45 11 -16 20 -40 20 -53 0 -12 9 -40 20 -62
11 -22 20 -59 20 -83 0 -24 5 -70 11 -103 8 -44 8 -90 -1 -184 -7 -69 -14
-136 -15 -150 -2 -14 -10 -42 -19 -62 -9 -21 -16 -50 -16 -66 0 -15 -9 -47
-20 -70 -11 -22 -20 -51 -20 -63 0 -12 -18 -48 -40 -81 -22 -33 -40 -64 -40
-70 0 -14 -147 -158 -162 -158 -7 0 -30 -16 -51 -35 -21 -19 -48 -35 -59 -35
-12 0 -31 -8 -42 -19 -25 -22 -95 -38 -228 -52 -92 -10 -100 -10 -131 10 -19
12 -42 21 -51 21 -15 0 -40 17 -148 100 -28 21 -82 98 -110 155 -8 17 -23 46
-33 65 -14 28 -19 70 -24 200 -8 185 3 601 19 742 19 174 23 193 41 220 11 14
19 37 19 50 0 16 18 43 50 77 59 62 159 111 228 112 26 0 67 6 92 13 45 13
110 12 185 -5z m-5506 -76 c43 -14 72 -34 138 -97 46 -43 83 -86 83 -96 0 -22
-44 -70 -65 -70 -9 0 -26 -6 -38 -14 -37 -23 -137 -37 -192 -27 -56 11 -97 50
-117 114 -20 64 19 140 97 188 36 23 27 23 94 2z m3900 -96 c46 -23 60 -56 69
-161 6 -74 5 -104 -5 -123 -7 -14 -13 -39 -13 -57 -1 -17 -9 -49 -20 -71 -11
-22 -19 -46 -20 -53 0 -7 -7 -24 -16 -37 -11 -16 -14 -34 -10 -51 9 -36 -11
-84 -35 -84 -11 0 -19 4 -19 8 0 5 -19 29 -42 54 -24 25 -60 76 -80 113 l-38
68 0 151 0 152 50 52 c48 50 52 52 102 52 29 0 64 -6 77 -13z m-3853 -902 c27
-22 28 -26 27 -111 l-1 -89 -53 -47 c-52 -47 -54 -48 -121 -48 -54 0 -79 5
-117 25 -49 26 -111 76 -111 89 0 5 -11 21 -25 38 -28 34 -33 88 -10 108 8 7
34 23 58 36 39 22 53 23 184 22 130 -1 144 -3 169 -23z"/>
<path d="M7900 8686 c-30 -7 -68 -21 -85 -31 -36 -22 -135 -116 -135 -128 0
-5 -10 -23 -23 -40 -39 -54 -52 -98 -52 -177 0 -63 4 -82 27 -120 25 -43 151
-150 176 -150 7 0 29 -9 49 -20 58 -31 170 -28 219 5 20 14 42 25 48 25 32 0
151 160 160 215 17 103 18 122 6 173 -13 57 -72 162 -92 162 -6 0 -31 17 -56
37 -27 22 -61 39 -86 44 -22 4 -54 9 -71 12 -16 3 -55 0 -85 -7z m166 -196
c40 -32 72 -94 73 -141 1 -42 -73 -135 -128 -164 l-49 -24 -38 19 c-21 11 -44
20 -50 20 -6 0 -28 18 -47 39 -70 77 -58 164 32 241 43 37 50 40 107 40 53 0
66 -4 100 -30z"/>
<path d="M7475 6807 c-16 -18 -42 -57 -59 -87 -32 -61 -61 -106 -106 -164 -17
-21 -30 -50 -30 -63 0 -14 -9 -36 -20 -50 -11 -14 -20 -33 -20 -42 0 -9 -9
-27 -20 -41 -11 -14 -20 -30 -20 -36 0 -17 -45 -54 -66 -54 -27 0 -34 7 -96
91 -31 43 -62 80 -68 84 -6 4 -32 37 -56 74 -43 63 -86 126 -136 200 -49 72
-64 82 -116 79 -44 -3 -48 -6 -66 -43 -14 -29 -22 -76 -28 -170 -4 -71 -12
-155 -18 -185 -6 -30 -15 -120 -21 -200 -5 -80 -19 -184 -29 -231 -11 -47 -20
-114 -20 -149 0 -35 -8 -88 -17 -118 -16 -51 -16 -56 0 -84 9 -16 17 -39 17
-51 0 -22 46 -77 65 -77 7 0 31 22 53 49 40 48 42 52 42 119 0 41 7 85 16 107
12 29 17 89 21 244 4 160 9 211 20 230 12 18 14 42 11 90 -6 75 -3 91 20 91
18 0 72 -48 72 -64 0 -6 9 -22 20 -36 11 -14 20 -30 20 -37 0 -6 25 -37 55
-69 30 -31 70 -81 88 -111 17 -30 42 -71 54 -91 13 -20 42 -59 66 -86 41 -46
45 -49 80 -42 31 6 39 13 56 50 10 24 24 47 30 50 6 4 11 17 11 29 0 12 9 36
20 52 11 17 20 38 20 47 0 10 9 32 20 50 11 18 20 43 20 55 0 13 9 37 20 55
11 18 20 42 20 54 0 11 9 29 20 39 11 10 20 28 20 39 1 32 65 99 87 92 28 -10
73 -82 73 -119 0 -17 9 -43 20 -57 12 -16 20 -41 20 -68 0 -23 9 -60 20 -82
11 -22 20 -48 20 -58 0 -11 9 -31 20 -45 11 -14 20 -38 20 -55 0 -16 9 -37 20
-47 14 -13 20 -31 20 -60 0 -29 6 -47 20 -60 11 -10 20 -30 20 -45 0 -15 9
-35 20 -45 11 -10 20 -28 20 -39 0 -12 8 -33 18 -46 9 -14 22 -38 27 -54 6
-16 23 -37 40 -46 18 -10 32 -28 37 -47 10 -37 40 -51 73 -33 42 22 49 50 27
110 -11 30 -23 73 -27 94 -4 22 -13 49 -21 60 -8 11 -14 30 -14 41 0 11 -9 35
-20 53 -11 18 -20 47 -20 65 0 18 -9 49 -20 70 -11 20 -20 45 -20 54 0 10 -9
33 -20 51 -11 18 -20 38 -20 45 0 7 -9 29 -20 50 -11 20 -20 54 -20 74 0 22
-9 48 -20 63 -11 14 -20 36 -20 50 0 14 -9 39 -20 55 -11 17 -20 40 -20 53 0
12 -9 39 -20 59 -11 21 -20 47 -20 58 0 11 -9 35 -20 53 -11 18 -20 42 -20 53
0 25 -54 103 -86 124 -39 25 -85 18 -119 -18z"/>
<path d="M4624 6770 c-129 -9 -178 -19 -234 -50 -19 -11 -49 -26 -66 -34 -38
-19 -215 -192 -230 -226 -6 -14 -21 -46 -33 -71 -11 -25 -21 -53 -21 -62 0 -8
-9 -34 -20 -58 -25 -57 -25 -119 0 -166 11 -21 20 -47 20 -59 0 -12 9 -33 20
-47 11 -14 20 -34 20 -45 0 -10 9 -27 20 -37 11 -10 20 -23 20 -29 1 -37 194
-185 267 -205 21 -6 47 -17 59 -25 29 -21 255 -32 356 -17 42 6 91 19 109 30
43 26 119 100 119 116 0 7 -21 30 -46 51 -53 43 -93 47 -161 16 -30 -13 -69
-16 -183 -16 -144 0 -146 1 -213 34 -89 43 -143 97 -189 189 -33 63 -38 82
-38 140 0 50 5 72 20 91 11 14 20 32 20 41 0 9 9 28 20 42 11 14 20 29 20 34
0 11 63 73 73 73 4 0 20 8 35 18 15 10 41 27 57 38 78 52 278 75 371 43 78
-28 113 -25 153 12 l33 30 -21 23 c-11 12 -21 29 -21 38 0 9 -14 29 -30 45
-24 24 -43 32 -88 37 -31 3 -66 8 -77 10 -11 2 -74 0 -141 -4z"/>
<path d="M5565 6740 c-16 -11 -39 -20 -51 -20 -11 0 -29 -9 -39 -20 -10 -11
-26 -20 -35 -20 -18 0 -167 -141 -213 -201 -15 -20 -27 -43 -27 -52 0 -10 -9
-34 -20 -54 -17 -32 -20 -57 -20 -171 0 -114 3 -138 19 -160 10 -15 21 -40 25
-55 4 -16 18 -46 32 -68 27 -44 141 -159 157 -159 6 0 18 -7 28 -16 10 -9 32
-20 51 -24 18 -5 53 -16 78 -25 60 -23 239 -18 289 8 19 9 41 17 49 17 28 0
184 104 223 149 21 25 39 51 39 56 0 6 9 21 20 35 11 14 20 32 20 40 0 8 10
33 22 55 18 33 23 60 26 156 4 103 2 121 -17 157 -12 23 -21 52 -21 65 0 13
-9 36 -20 50 -11 14 -20 32 -20 39 0 8 -24 41 -54 74 -49 55 -73 71 -226 151
-17 9 -67 13 -155 13 -113 0 -134 -3 -160 -20z m207 -172 c29 -6 64 -20 77
-30 13 -10 31 -18 40 -18 21 0 111 -90 111 -111 0 -9 9 -28 20 -42 12 -15 20
-40 20 -62 0 -20 5 -45 11 -56 14 -28 -5 -146 -32 -199 -23 -44 -115 -130
-139 -130 -8 0 -26 -9 -40 -20 -21 -17 -41 -20 -135 -20 -93 0 -115 3 -140 20
-16 11 -38 20 -49 20 -10 0 -49 31 -87 69 l-69 69 0 134 0 134 43 64 c55 83
166 170 217 170 19 0 42 5 50 10 20 13 38 12 102 -2z"/>
<path d="M3195 5791 c-16 -4 -40 -13 -52 -19 -12 -7 -41 -12 -65 -12 -25 0
-56 -8 -76 -20 -18 -11 -46 -20 -62 -20 -16 0 -44 -9 -62 -20 -18 -11 -49 -20
-68 -20 -19 0 -52 -9 -73 -20 -20 -11 -50 -20 -67 -20 -16 0 -44 -9 -62 -20
-18 -11 -49 -20 -69 -20 -21 0 -47 -8 -62 -20 -14 -11 -40 -20 -59 -20 -18 0
-44 -9 -58 -20 -16 -12 -41 -20 -68 -20 -24 0 -61 -9 -84 -20 -23 -11 -57 -22
-77 -26 -20 -3 -46 -12 -58 -20 -12 -8 -37 -14 -55 -14 -18 0 -50 -9 -71 -20
-20 -11 -47 -20 -60 -20 -12 0 -39 -9 -60 -20 -20 -11 -46 -20 -58 -20 -11 0
-33 -8 -47 -19 -15 -10 -39 -21 -54 -25 -15 -3 -33 -12 -40 -19 -7 -7 -43 -30
-80 -50 -99 -55 -108 -70 -108 -184 0 -52 -4 -102 -9 -112 -6 -10 -6 -46 0
-92 5 -40 10 -117 11 -169 0 -68 6 -107 19 -139 11 -24 19 -53 19 -65 0 -11 9
-32 20 -46 11 -14 20 -33 20 -43 0 -43 86 -157 118 -157 8 0 27 -9 43 -21 25
-17 44 -20 143 -21 99 0 121 2 156 21 22 11 51 21 63 21 12 0 38 8 57 19 25
13 68 20 145 25 l111 7 41 -30 c44 -32 83 -81 83 -103 0 -8 9 -23 20 -33 11
-10 20 -25 20 -34 0 -9 9 -27 20 -41 11 -14 20 -34 20 -46 0 -11 9 -29 20 -39
11 -10 20 -28 20 -39 0 -12 9 -34 20 -51 11 -16 20 -40 20 -52 0 -13 9 -37 20
-55 11 -18 20 -46 20 -63 0 -16 9 -41 20 -55 11 -14 20 -41 20 -62 0 -21 8
-59 19 -85 10 -26 22 -79 26 -118 4 -38 14 -90 22 -114 18 -55 13 -192 -14
-336 -21 -111 -43 -154 -98 -192 -72 -49 -238 -50 -332 -2 -20 10 -42 19 -49
19 -6 0 -17 7 -24 15 -7 8 -19 15 -28 15 -26 0 -147 86 -190 136 -23 25 -56
67 -72 93 -17 25 -60 76 -96 113 -83 84 -123 95 -186 52 -51 -36 -138 -133
-138 -154 0 -9 -9 -25 -20 -35 -11 -10 -20 -28 -20 -39 0 -12 -9 -32 -20 -46
-12 -15 -20 -41 -20 -65 0 -22 -9 -67 -19 -100 -15 -48 -19 -96 -20 -245 -1
-168 0 -189 19 -225 11 -21 20 -57 20 -80 1 -22 8 -58 16 -80 9 -22 18 -53 21
-70 3 -16 14 -42 24 -57 11 -14 19 -30 19 -35 0 -11 49 -104 65 -123 7 -8 15
-23 16 -32 7 -30 266 -284 312 -306 24 -11 49 -27 56 -36 8 -9 21 -16 30 -16
9 0 27 -9 41 -20 14 -11 41 -20 60 -20 19 0 49 -9 65 -20 18 -12 47 -20 71
-20 22 0 56 -7 74 -16 97 -49 527 -51 606 -3 17 11 41 19 53 19 12 0 39 9 61
20 22 11 45 20 52 20 7 0 36 12 63 26 28 15 66 35 85 45 54 29 266 244 289
294 11 24 25 46 31 50 5 3 10 14 10 24 0 10 9 30 20 44 11 14 20 33 20 42 0 9
9 28 20 42 11 14 20 35 20 47 0 11 9 45 20 74 11 29 20 66 20 82 0 17 7 42 16
56 11 16 18 54 21 107 5 96 22 124 65 108 14 -5 28 -17 31 -25 4 -9 14 -16 24
-16 10 0 29 -9 43 -20 14 -11 31 -20 37 -20 7 0 27 -9 45 -20 18 -11 40 -20
49 -20 9 0 22 -6 28 -14 20 -24 113 -63 177 -75 119 -22 349 -5 420 32 16 8
44 18 61 22 18 3 35 10 37 14 3 4 35 23 71 41 102 52 385 334 385 385 0 11 11
36 25 55 14 19 25 44 25 55 0 12 9 30 20 40 11 10 20 28 20 40 0 12 8 33 19
46 10 13 21 42 24 64 2 22 12 58 20 80 25 64 23 333 -3 411 -11 32 -20 74 -20
91 0 18 -9 47 -20 65 -11 18 -20 51 -20 73 0 22 -9 55 -20 73 -11 18 -20 43
-20 57 0 13 -4 27 -10 30 -5 3 -26 41 -47 83 -32 66 -58 97 -176 216 l-139
139 7 56 c4 30 16 66 26 80 10 13 19 30 19 37 0 8 27 47 60 88 33 41 60 76 60
79 0 9 148 157 157 157 5 0 22 12 39 28 43 40 111 92 118 92 4 0 31 18 60 40
29 22 60 40 68 40 8 0 23 9 33 20 10 11 28 20 40 20 12 0 30 9 40 20 10 11 28
20 40 20 12 0 34 9 48 20 14 11 37 20 51 20 15 0 52 9 83 20 51 18 83 20 275
20 199 0 221 -2 255 -20 21 -11 47 -20 58 -20 11 0 31 -9 45 -20 14 -11 30
-20 37 -20 6 0 29 -21 50 -47 21 -27 40 -50 43 -53 3 -3 18 -24 33 -47 24 -38
27 -52 27 -130 0 -70 -4 -95 -20 -121 -11 -18 -20 -43 -20 -56 0 -29 -46 -94
-123 -173 -65 -66 -77 -71 -117 -49 -86 49 -118 58 -243 69 -122 10 -128 10
-155 -10 -15 -11 -42 -24 -59 -27 -17 -4 -37 -14 -44 -22 -6 -8 -17 -14 -23
-14 -18 0 -184 -158 -192 -183 -4 -12 -15 -33 -25 -46 -11 -13 -19 -35 -19
-48 0 -13 -9 -45 -19 -71 -49 -119 -51 -392 -5 -562 8 -30 19 -70 24 -88 4
-19 15 -41 24 -51 9 -10 16 -23 16 -29 0 -30 132 -192 156 -192 6 0 17 -7 24
-15 20 -24 115 -75 141 -75 13 -1 42 -9 64 -20 32 -16 62 -19 154 -20 124 0
160 12 229 74 29 27 32 36 32 86 0 31 -5 61 -12 68 -18 18 -70 14 -124 -10
-69 -30 -223 -28 -286 4 -65 33 -164 134 -194 198 -14 30 -35 73 -45 96 -11
22 -24 68 -29 101 -4 34 -13 70 -19 81 -15 28 -14 70 5 182 9 52 18 111 21
130 3 19 14 46 24 59 11 13 19 34 19 46 0 26 69 94 121 120 19 10 42 24 51 32
26 23 184 18 248 -7 28 -11 58 -20 67 -20 9 0 25 -8 35 -17 12 -11 41 -18 84
-21 63 -3 69 -2 118 32 74 51 185 175 200 223 4 11 13 27 21 33 8 7 15 20 15
30 0 9 9 29 20 43 11 14 20 32 20 41 0 9 9 33 20 53 29 54 29 222 0 276 -11
20 -20 42 -20 47 0 6 -20 46 -45 89 -44 76 -131 171 -157 171 -7 0 -24 9 -38
20 -14 11 -32 20 -40 20 -8 0 -26 9 -40 20 -14 11 -37 20 -52 20 -15 0 -42 9
-60 20 -30 18 -51 20 -249 20 -184 0 -226 -3 -280 -19 -35 -11 -86 -22 -114
-26 -27 -4 -62 -13 -77 -21 -15 -8 -35 -14 -45 -14 -20 0 -189 -84 -214 -106
-8 -8 -23 -14 -31 -14 -9 0 -18 -3 -20 -7 -4 -10 -90 -80 -138 -113 -29 -20
-148 -123 -171 -148 -167 -179 -182 -198 -254 -326 -20 -36 -41 -68 -46 -72
-5 -3 -9 -16 -9 -29 0 -27 -42 -81 -69 -90 -10 -3 -37 2 -61 10 -23 8 -59 15
-80 15 -20 0 -59 7 -86 15 -62 19 -163 19 -234 0 -30 -8 -79 -15 -108 -15 -33
0 -68 -8 -92 -20 -22 -11 -50 -20 -62 -20 -13 0 -34 -9 -48 -20 -14 -11 -32
-20 -41 -20 -9 0 -24 -9 -34 -20 -10 -11 -27 -20 -38 -20 -37 0 -109 -45 -152
-93 -57 -65 -79 -62 -107 13 -11 30 -24 89 -29 130 -5 41 -16 95 -25 119 -20
52 -22 115 -4 136 9 10 31 15 73 15 38 0 75 7 101 19 23 10 61 24 84 31 50 13
132 82 132 111 0 10 5 21 11 24 17 11 56 107 64 160 4 28 7 109 6 180 -1 107
-5 137 -21 168 -11 21 -20 48 -20 61 0 13 -9 35 -20 49 -11 14 -20 32 -20 40
0 9 -5 19 -10 22 -6 4 -19 24 -31 46 -29 58 -86 117 -145 151 -29 16 -58 36
-64 43 -7 8 -23 15 -36 15 -13 0 -41 9 -61 20 -33 17 -56 20 -173 19 -74 -1
-148 -4 -165 -8z m300 -216 c33 -10 67 -24 76 -31 8 -8 20 -14 25 -14 27 -1
101 -96 144 -184 21 -44 23 -63 24 -206 1 -142 -1 -160 -18 -179 -11 -12 -24
-31 -30 -42 -6 -12 -30 -35 -52 -51 -40 -29 -46 -30 -182 -35 -123 -5 -144 -8
-167 -27 -32 -26 -57 -108 -44 -144 5 -13 9 -44 9 -70 0 -26 9 -67 20 -91 11
-24 20 -57 20 -75 0 -28 7 -57 40 -186 5 -19 16 -50 25 -68 9 -18 19 -67 22
-110 3 -42 12 -89 19 -104 8 -15 14 -40 14 -56 0 -16 8 -53 19 -83 10 -30 21
-92 25 -139 4 -47 14 -100 21 -118 8 -18 16 -63 19 -100 3 -37 12 -89 20 -117
14 -50 32 -201 27 -242 -1 -11 5 -55 13 -97 12 -56 16 -138 16 -326 0 -225 -2
-256 -20 -307 -11 -32 -20 -80 -20 -108 0 -33 -7 -60 -20 -80 -11 -16 -20 -43
-20 -58 0 -16 -6 -41 -14 -55 -8 -15 -26 -53 -42 -84 -15 -32 -35 -65 -46 -74
-10 -10 -18 -25 -18 -34 0 -20 -163 -197 -194 -211 -32 -15 -64 -34 -83 -51
-25 -21 -101 -58 -119 -58 -8 0 -33 -9 -55 -21 -38 -19 -58 -20 -287 -21 -226
0 -252 2 -309 21 -34 12 -75 21 -91 21 -16 0 -35 6 -41 14 -7 8 -27 18 -44 21
-18 4 -46 16 -63 26 -17 10 -38 19 -46 19 -9 0 -21 7 -28 15 -7 8 -32 25 -57
37 -52 26 -143 121 -143 149 0 10 -4 19 -9 19 -12 0 -71 87 -71 104 0 7 -9 25
-20 39 -11 14 -20 33 -20 44 0 10 -9 29 -20 43 -11 15 -20 41 -20 63 0 21 -9
65 -21 99 -19 56 -20 80 -17 267 3 172 6 211 21 236 9 17 17 49 17 71 0 26 7
51 20 67 11 14 20 32 20 41 0 41 92 40 107 -1 3 -10 20 -34 37 -54 17 -19 38
-46 46 -59 32 -50 64 -81 94 -94 17 -8 48 -30 70 -50 21 -20 43 -36 48 -36 5
0 35 -18 65 -40 37 -26 67 -40 87 -40 18 0 42 -7 54 -16 12 -8 48 -18 80 -21
31 -3 67 -12 79 -20 16 -11 27 -12 41 -4 10 5 43 13 73 17 65 9 175 62 219
106 18 17 43 48 56 69 13 20 28 40 34 44 5 3 10 21 10 40 0 19 9 49 20 67 18
31 19 50 16 293 -3 207 -7 270 -20 309 -9 27 -16 73 -16 103 0 31 -7 68 -17
86 -9 18 -20 56 -24 85 -4 30 -15 62 -23 71 -9 10 -16 31 -16 47 0 16 -9 40
-20 54 -11 14 -20 32 -20 40 0 8 -9 29 -20 45 -11 17 -20 40 -20 51 0 12 -9
33 -20 47 -11 14 -20 34 -20 45 0 10 -9 27 -20 37 -11 10 -20 25 -20 34 0 9
-18 40 -40 69 -22 29 -40 58 -40 64 0 17 -101 118 -117 118 -7 0 -35 16 -62
35 -44 32 -54 35 -119 35 -68 0 -165 -26 -202 -55 -30 -24 -117 -47 -212 -57
-92 -10 -98 -9 -126 12 -17 12 -38 38 -48 56 -10 19 -21 34 -25 34 -4 0 -9 21
-13 48 -3 26 -13 65 -21 87 -10 29 -14 91 -15 232 l0 193 37 41 c37 41 146 99
187 99 11 0 35 9 51 20 17 11 47 20 70 20 22 0 58 9 80 20 22 11 58 20 80 20
23 0 53 9 70 20 17 11 47 20 70 20 23 0 53 9 70 20 17 11 46 20 65 20 19 0 49
9 65 20 17 11 46 20 65 20 20 0 52 8 73 19 20 10 54 22 74 26 21 4 50 13 65
21 15 8 42 14 60 14 18 0 48 9 66 20 18 11 45 20 61 20 16 0 48 9 72 20 24 11
60 20 79 20 19 1 58 9 85 20 62 23 220 21 310 -5z m983 -1311 c18 -7 57 -16
85 -20 29 -3 64 -14 79 -25 15 -10 36 -19 47 -19 11 0 52 -16 90 -36 75 -39
221 -174 221 -205 0 -9 7 -23 16 -30 16 -13 104 -191 104 -211 0 -6 9 -27 19
-47 11 -20 30 -70 42 -111 21 -67 24 -93 22 -240 0 -129 -4 -174 -17 -205 -9
-21 -18 -64 -20 -94 -2 -35 -11 -69 -25 -91 -11 -19 -21 -41 -21 -49 0 -8 -18
-38 -40 -67 -22 -29 -40 -58 -40 -64 0 -15 -185 -200 -199 -200 -7 0 -35 -16
-64 -35 -28 -19 -62 -35 -76 -35 -13 0 -40 -9 -60 -19 -20 -11 -87 -26 -151
-35 -104 -15 -121 -15 -173 -1 -32 8 -77 15 -101 15 -43 0 -86 18 -177 75 -63
40 -199 175 -199 198 0 10 -8 31 -19 45 -10 15 -21 53 -25 85 -3 32 -13 72
-21 87 -11 21 -15 65 -15 162 -1 88 -6 146 -15 172 -8 22 -17 76 -21 120 -3
45 -15 104 -25 131 -11 28 -19 70 -19 93 0 24 -7 68 -16 98 -11 40 -13 63 -6
87 6 17 13 56 17 86 3 30 15 67 26 82 10 15 19 31 19 37 0 20 179 172 203 172
8 0 17 7 20 14 3 8 23 18 44 22 21 4 47 13 58 20 12 8 56 19 99 24 43 6 88 15
99 20 33 13 198 9 235 -6z"/>
<path d="M4315 3750 c-51 -14 -100 -34 -128 -53 -14 -9 -30 -17 -35 -17 -15 0
-152 -148 -152 -164 0 -8 -9 -33 -20 -57 -27 -60 -28 -180 -1 -217 10 -15 21
-42 24 -60 4 -18 22 -57 42 -87 19 -31 35 -59 35 -63 0 -12 78 -61 108 -69 15
-3 36 -12 47 -19 12 -8 53 -16 92 -20 59 -6 81 -3 139 17 38 13 83 34 101 46
17 13 36 23 41 23 19 0 112 92 112 111 0 11 10 33 21 49 20 27 22 37 17 147
-5 105 -9 125 -36 181 -37 76 -154 210 -191 218 -14 3 -55 14 -90 25 -69 20
-80 21 -126 9z m144 -220 c45 -37 101 -111 101 -135 0 -9 5 -25 11 -36 13 -26
-7 -123 -34 -162 -65 -94 -202 -112 -285 -39 -89 80 -123 180 -87 256 20 43
127 143 159 149 50 9 96 -2 135 -33z"/>
<path d="M9233 5500 c-21 -9 -60 -20 -85 -24 -26 -4 -52 -14 -58 -21 -7 -8
-24 -15 -39 -15 -14 0 -37 -9 -51 -20 -14 -11 -32 -20 -40 -20 -8 0 -26 -9
-40 -20 -14 -11 -31 -20 -39 -20 -13 0 -130 -93 -199 -160 -60 -57 -183 -212
-199 -250 -72 -173 -116 -236 -138 -200 -3 6 -13 10 -22 10 -8 0 -37 18 -63
40 -26 22 -54 40 -63 40 -8 0 -26 9 -40 20 -14 11 -34 20 -44 20 -10 0 -35 9
-56 20 -20 11 -46 20 -57 20 -12 0 -34 7 -49 15 -16 8 -62 18 -103 23 -41 6
-84 14 -94 20 -12 6 -39 6 -74 0 -30 -5 -93 -12 -140 -16 -55 -4 -96 -13 -113
-24 -14 -10 -40 -18 -56 -18 -16 0 -32 -4 -36 -9 -7 -12 -93 -71 -103 -71 -17
0 -262 -252 -299 -306 -61 -92 -133 -250 -133 -292 0 -15 -7 -38 -17 -51 -14
-21 -20 -53 -35 -190 -5 -38 -33 -49 -60 -25 -13 12 -62 30 -117 43 -78 19
-108 21 -180 15 -47 -3 -95 -13 -106 -20 -11 -8 -26 -14 -33 -14 -34 0 -212
-166 -212 -198 0 -5 -10 -31 -21 -58 -43 -96 -7 -257 77 -347 32 -35 71 -45
92 -23 13 13 16 32 14 88 -2 39 -9 83 -16 97 -30 59 -29 82 6 149 44 86 93
124 169 133 99 12 191 4 229 -20 19 -11 45 -21 56 -21 21 0 84 -60 84 -79 0
-5 15 -34 34 -65 22 -36 36 -75 41 -112 3 -30 13 -71 21 -91 9 -19 16 -54 16
-76 0 -23 9 -57 19 -77 10 -19 21 -64 23 -100 3 -36 12 -83 20 -105 8 -22 15
-72 16 -112 0 -48 7 -89 20 -123 25 -63 27 -168 4 -212 -9 -17 -17 -43 -19
-58 -10 -79 -115 -182 -205 -201 -46 -10 -55 -9 -79 8 -14 11 -42 25 -61 33
-19 7 -42 19 -50 25 -8 6 -35 22 -60 34 -25 13 -58 35 -75 50 -46 42 -77 61
-102 61 -26 0 -116 -44 -134 -66 -6 -8 -18 -14 -26 -14 -8 0 -26 -9 -40 -20
-15 -11 -41 -20 -62 -20 -20 0 -56 -9 -80 -20 -57 -26 -150 -26 -226 0 -32 11
-75 20 -95 20 -21 0 -43 7 -50 15 -7 8 -27 17 -45 21 -22 4 -59 29 -105 70
-74 67 -82 70 -125 54 -36 -14 -48 -51 -32 -102 15 -51 173 -218 206 -218 12
0 38 -9 58 -20 21 -11 46 -20 56 -20 10 0 31 -7 48 -16 20 -10 72 -17 150 -21
136 -7 200 4 293 49 32 15 65 28 73 28 8 0 28 11 45 25 47 39 85 34 138 -20
24 -25 50 -45 58 -45 8 0 25 -9 39 -20 14 -11 32 -20 39 -20 7 0 28 -9 46 -20
28 -17 51 -20 143 -20 100 0 115 3 160 26 28 15 57 33 66 40 8 8 22 14 30 14
21 0 105 88 130 135 20 38 35 86 45 150 11 66 15 75 32 75 10 0 29 -11 42 -24
12 -14 41 -34 64 -45 23 -10 48 -26 55 -35 8 -9 20 -16 28 -16 8 0 26 -9 40
-20 14 -11 35 -20 47 -20 11 0 32 -9 46 -20 15 -12 41 -20 66 -20 22 0 74 -9
115 -20 109 -29 368 -29 422 0 20 11 49 20 64 20 16 0 39 6 53 13 162 87 199
105 220 112 14 4 42 20 62 36 47 37 68 38 68 2 0 -22 23 -50 112 -135 62 -59
120 -108 129 -108 9 0 22 -7 29 -15 6 -8 21 -17 32 -21 11 -3 48 -24 82 -45
37 -24 73 -39 92 -39 17 0 53 -10 80 -22 47 -22 60 -23 304 -22 241 1 257 2
297 22 23 12 56 22 72 22 16 0 58 16 93 35 34 19 77 41 94 49 17 8 35 19 38
25 4 6 15 11 25 11 10 0 30 9 44 20 14 11 30 20 36 20 42 0 321 285 321 328 0
12 4 23 9 26 17 11 108 152 139 216 18 36 38 94 46 130 7 36 20 81 29 100 23
55 19 411 -7 505 -24 90 -90 237 -122 276 -8 8 -14 20 -14 25 0 11 -156 169
-200 202 -14 11 -42 27 -63 35 -20 9 -37 21 -37 28 0 6 23 36 50 66 28 30 50
59 50 65 0 5 9 21 20 35 11 14 20 36 20 48 0 12 8 29 19 39 14 13 20 37 25
109 8 110 -9 308 -29 348 -8 15 -15 39 -15 52 0 13 -9 32 -20 42 -11 10 -20
25 -20 34 0 36 -243 280 -279 281 -8 0 -29 11 -47 25 -18 14 -39 25 -46 25 -8
0 -23 7 -35 15 -11 8 -40 17 -64 21 -24 4 -70 15 -102 26 -81 26 -414 25 -474
-2z m324 -179 c55 -6 101 -16 115 -25 12 -9 35 -16 50 -16 16 0 45 -9 65 -20
21 -11 45 -20 53 -20 8 0 26 -9 40 -20 14 -11 31 -20 38 -20 30 0 162 -101
162 -124 0 -6 9 -22 20 -36 11 -14 20 -32 20 -41 0 -9 8 -24 19 -33 12 -11 21
-37 25 -74 4 -31 12 -71 18 -88 9 -25 8 -45 -5 -97 -10 -36 -17 -78 -17 -92 0
-15 -9 -38 -20 -52 -11 -14 -20 -34 -20 -44 0 -9 -23 -43 -52 -74 l-52 -57
-53 5 c-30 3 -66 15 -82 26 -16 12 -33 21 -38 21 -5 0 -22 12 -39 28 -97 87
-226 157 -308 168 -42 6 -142 -19 -201 -49 -11 -6 -33 -17 -49 -25 -35 -18
-166 -140 -166 -156 0 -6 -9 -22 -20 -36 -15 -20 -20 -41 -20 -98 0 -73 0 -74
52 -143 29 -38 81 -92 116 -119 l65 -50 128 0 c105 0 138 4 179 20 28 11 62
20 76 20 14 0 51 18 81 40 31 22 61 40 66 40 6 0 35 12 65 26 50 24 59 25 116
16 110 -18 151 -39 290 -152 34 -28 124 -174 125 -203 1 -10 10 -38 21 -63 19
-40 21 -65 21 -258 0 -196 -1 -218 -20 -260 -12 -24 -21 -53 -21 -63 0 -10 -9
-36 -20 -58 -11 -22 -20 -51 -20 -66 0 -14 -9 -34 -20 -44 -11 -10 -20 -24
-20 -32 0 -8 -19 -39 -42 -70 -24 -31 -52 -68 -62 -82 -58 -78 -253 -236 -317
-256 -13 -4 -33 -14 -44 -21 -11 -8 -29 -14 -40 -14 -11 0 -31 -9 -45 -20 -14
-11 -39 -20 -57 -20 -18 0 -49 -9 -69 -20 -32 -19 -54 -21 -227 -22 -154 0
-201 3 -236 16 -24 9 -69 19 -100 22 -31 3 -68 15 -83 25 -15 10 -37 19 -49
19 -11 0 -32 9 -46 20 -14 11 -39 20 -55 20 -44 0 -164 123 -170 175 -3 29 1
44 18 64 23 28 64 100 64 114 0 5 9 20 20 34 11 14 20 35 20 45 0 11 9 31 20
45 13 17 20 41 20 68 0 27 7 51 20 68 11 14 20 37 20 51 0 15 4 34 10 44 5 9
16 34 24 54 8 20 26 44 40 53 23 16 28 16 49 2 36 -24 62 -52 113 -119 54 -72
114 -138 126 -138 5 0 30 -15 57 -34 27 -19 66 -37 87 -41 22 -3 56 -11 77
-17 30 -9 43 -9 58 0 10 7 45 12 76 12 42 0 65 6 83 20 14 11 36 20 51 20 33
0 109 56 109 80 0 10 4 21 9 24 4 3 22 35 40 71 71 150 18 284 -157 398 -43
28 -69 31 -302 39 -58 2 -184 -33 -230 -63 -59 -38 -160 -46 -211 -17 -46 26
-59 53 -69 148 -4 41 -15 92 -24 112 -9 21 -16 50 -16 65 0 15 -9 43 -20 61
-11 18 -20 46 -20 63 0 17 -9 42 -20 56 -11 14 -20 36 -20 48 0 12 -9 34 -20
48 -11 14 -20 35 -20 47 0 12 -9 33 -20 47 -11 14 -20 38 -20 53 0 15 -9 35
-20 45 -11 10 -20 26 -20 35 0 9 -9 25 -20 35 -11 10 -22 27 -26 39 -4 11 -23
41 -42 65 -35 43 -36 46 -34 125 2 50 9 89 17 103 8 12 15 28 15 36 0 7 12 24
26 38 14 13 35 39 47 59 11 19 46 61 76 94 64 67 234 206 253 206 7 0 24 9 38
20 14 11 35 20 46 20 12 0 33 9 47 20 14 11 38 20 54 20 15 0 42 9 60 19 45
28 167 36 320 22z m-1792 -554 c44 -6 99 -19 123 -29 24 -10 55 -18 69 -18 14
0 36 -9 50 -20 14 -11 33 -20 43 -20 10 0 28 -8 41 -18 13 -10 35 -23 49 -30
46 -22 78 -45 169 -121 43 -36 131 -142 131 -158 0 -5 16 -25 36 -44 50 -47
84 -103 84 -137 0 -16 9 -37 20 -47 11 -10 20 -25 20 -33 0 -7 8 -26 19 -40
10 -15 21 -44 24 -66 3 -21 13 -46 22 -56 8 -9 15 -27 15 -41 0 -13 9 -46 19
-74 11 -27 29 -92 41 -143 19 -79 21 -112 17 -218 -4 -90 -10 -132 -21 -149
-9 -13 -16 -37 -16 -53 0 -16 -9 -41 -20 -55 -11 -14 -20 -36 -20 -50 0 -13
-7 -30 -15 -37 -8 -7 -21 -24 -28 -39 -62 -124 -284 -335 -407 -387 -8 -3 -40
-17 -71 -30 -31 -13 -64 -24 -74 -24 -9 0 -42 -7 -73 -16 -45 -13 -86 -16
-211 -12 -164 6 -279 25 -343 59 -20 10 -44 19 -53 19 -9 0 -40 18 -69 40 -29
22 -57 40 -63 40 -12 0 -61 51 -79 82 -50 89 -74 145 -74 174 0 18 -9 56 -20
84 -11 28 -20 74 -20 103 0 34 -7 63 -20 85 -13 21 -20 50 -20 85 0 30 -9 70
-20 96 -11 24 -20 60 -20 80 -1 20 -9 54 -20 76 -11 22 -20 47 -20 55 0 8 -9
35 -20 59 -18 38 -21 66 -21 196 0 137 2 156 20 186 12 19 21 42 21 52 0 9 9
34 20 54 11 21 20 44 20 51 0 7 18 37 40 67 22 30 40 61 40 68 0 8 7 20 15 27
9 7 23 28 32 47 17 37 126 153 143 153 6 0 35 18 65 40 30 22 60 40 67 40 7 0
30 9 51 20 20 11 56 20 79 21 24 1 54 4 68 8 36 11 74 10 165 -2z m1796 -349
c93 -67 141 -116 134 -137 -6 -21 -76 -81 -93 -81 -6 0 -26 -8 -44 -19 -39
-22 -174 -35 -232 -22 -50 12 -96 56 -96 92 0 31 51 103 107 152 28 25 48 33
92 38 31 3 63 6 71 7 8 1 36 -13 61 -30z m108 -987 c49 -48 51 -51 51 -106 0
-65 -26 -109 -88 -146 -54 -33 -149 -30 -219 5 -61 31 -129 106 -137 152 -10
52 7 79 71 112 53 28 67 30 165 31 l107 1 50 -49z"/>
<path d="M7668 4166 c-37 -6 -75 -19 -86 -29 -10 -9 -23 -17 -28 -17 -38 -1
-154 -137 -154 -180 0 -11 -10 -35 -21 -55 -19 -32 -22 -53 -23 -165 -1 -118
1 -131 22 -159 12 -16 22 -36 22 -44 0 -7 32 -46 71 -85 55 -56 77 -72 99 -72
16 0 44 -9 62 -19 27 -16 49 -19 118 -17 100 3 156 22 254 86 65 43 73 52 115
135 l45 89 -1 106 c0 104 -2 109 -41 191 -72 149 -143 208 -278 233 -51 9 -96
16 -100 15 -5 0 -39 -6 -76 -13z m219 -227 c56 -54 72 -82 82 -145 14 -88 -3
-165 -43 -201 -79 -71 -181 -91 -259 -52 -72 37 -102 66 -125 122 l-22 53 24
93 c20 74 31 99 53 118 44 36 109 53 186 49 62 -3 72 -7 104 -37z"/>
</g>
</svg>
