<?xml version="1.0" encoding="utf-8" ?>
<svg baseProfile="full" height="106px" version="1.1" viewBox="0,0,65,106" width="65px" xmlns="http://www.w3.org/2000/svg" xmlns:ev="http://www.w3.org/2001/xml-events" xmlns:xlink="http://www.w3.org/1999/xlink"><defs /><path d="M 36 2 L 35 3 L 28 3 L 27 4 L 25 4 L 22 7 L 21 7 L 20 6 L 19 6 L 18 5 L 17 5 L 16 4 L 13 7 L 12 7 L 8 11 L 8 13 L 7 14 L 7 15 L 6 16 L 6 19 L 5 20 L 5 21 L 4 22 L 5 23 L 4 24 L 4 28 L 3 29 L 3 33 L 2 34 L 3 35 L 3 38 L 4 39 L 2 41 L 3 42 L 3 46 L 6 49 L 8 49 L 9 50 L 13 50 L 14 51 L 17 51 L 18 52 L 21 52 L 22 53 L 23 52 L 24 52 L 25 53 L 26 53 L 27 52 L 28 53 L 34 53 L 35 52 L 38 55 L 38 56 L 37 57 L 38 58 L 36 60 L 36 62 L 35 63 L 35 64 L 34 65 L 34 66 L 33 67 L 33 68 L 32 69 L 32 70 L 25 77 L 23 77 L 22 78 L 21 78 L 19 80 L 18 79 L 16 81 L 16 84 L 15 85 L 15 86 L 16 87 L 14 89 L 15 90 L 14 91 L 16 93 L 16 95 L 17 96 L 18 96 L 23 101 L 25 101 L 26 102 L 29 102 L 30 103 L 31 102 L 36 102 L 37 101 L 38 101 L 39 100 L 40 100 L 44 96 L 44 95 L 45 94 L 45 93 L 47 91 L 48 91 L 49 90 L 49 88 L 51 86 L 51 85 L 53 83 L 53 82 L 54 81 L 54 79 L 55 78 L 55 77 L 56 76 L 56 72 L 57 71 L 57 68 L 58 67 L 58 62 L 59 61 L 59 57 L 60 56 L 59 55 L 60 54 L 60 52 L 61 51 L 61 44 L 62 43 L 61 42 L 61 40 L 62 39 L 61 38 L 61 36 L 62 35 L 62 34 L 61 33 L 61 32 L 60 31 L 60 30 L 61 29 L 61 27 L 59 25 L 59 23 L 58 22 L 58 20 L 57 19 L 57 18 L 56 17 L 56 12 L 55 11 L 55 10 L 54 9 L 54 8 L 50 4 L 48 4 L 47 3 L 46 3 L 45 2 L 44 2 L 42 4 L 41 3 L 38 3 L 37 2 Z M 30 21 L 31 20 L 35 20 L 43 28 L 43 32 L 40 35 L 38 35 L 37 36 L 36 36 L 35 37 L 30 37 L 29 38 L 26 38 L 25 39 L 24 39 L 20 35 L 22 33 L 21 32 L 22 31 L 21 30 L 21 28 L 22 27 L 22 25 L 25 22 L 26 22 L 27 21 Z" fill="black" fill-rule="evenodd" stroke="none" /></svg>