<?xml version="1.0" encoding="utf-8" ?>
<svg baseProfile="full" height="104px" version="1.1" viewBox="0,0,67,104" width="67px" xmlns="http://www.w3.org/2000/svg" xmlns:ev="http://www.w3.org/2001/xml-events" xmlns:xlink="http://www.w3.org/1999/xlink"><defs /><path d="M 62 5 L 59 7 L 55 5 L 50 8 L 49 7 L 29 8 L 27 6 L 25 7 L 15 2 L 7 8 L 9 12 L 8 13 L 9 17 L 11 19 L 10 21 L 12 23 L 10 25 L 11 30 L 7 34 L 6 39 L 4 41 L 6 47 L 5 51 L 6 54 L 20 61 L 26 60 L 36 61 L 42 67 L 41 77 L 34 81 L 31 81 L 29 79 L 27 74 L 22 68 L 17 68 L 15 66 L 8 67 L 3 73 L 3 79 L 6 86 L 7 95 L 10 98 L 19 101 L 21 99 L 30 101 L 41 97 L 43 98 L 55 91 L 62 84 L 64 80 L 63 69 L 56 55 L 41 43 L 28 42 L 26 40 L 29 34 L 28 33 L 29 26 L 33 22 L 34 23 L 36 22 L 38 24 L 39 31 L 43 36 L 49 35 L 50 36 L 60 30 L 59 19 L 60 16 L 65 11 L 65 7 Z" fill="black" stroke="none" /></svg>