<?xml version="1.0" encoding="utf-8" ?>
<svg baseProfile="full" height="102px" version="1.1" viewBox="0,0,66,102" width="66px" xmlns="http://www.w3.org/2000/svg" xmlns:ev="http://www.w3.org/2001/xml-events" xmlns:xlink="http://www.w3.org/1999/xlink"><defs /><path d="M 47 4 L 45 5 L 42 3 L 33 3 L 30 5 L 28 4 L 26 6 L 21 6 L 14 10 L 12 9 L 6 16 L 7 17 L 3 25 L 10 33 L 13 33 L 15 35 L 24 33 L 32 22 L 33 23 L 38 22 L 41 25 L 42 30 L 41 36 L 38 39 L 35 39 L 32 41 L 29 39 L 27 41 L 22 39 L 18 40 L 14 44 L 15 45 L 14 48 L 17 52 L 24 56 L 31 56 L 35 59 L 39 67 L 40 73 L 36 77 L 32 78 L 26 76 L 17 65 L 10 64 L 5 69 L 5 73 L 2 76 L 2 81 L 5 84 L 6 89 L 13 95 L 24 100 L 25 99 L 39 99 L 47 96 L 60 85 L 63 78 L 63 70 L 61 68 L 62 65 L 60 63 L 61 61 L 60 57 L 51 50 L 59 38 L 58 32 L 59 24 Z" fill="black" stroke="none" /></svg>