<?xml version="1.0" encoding="utf-8" ?>
<svg baseProfile="full" height="95px" version="1.1" viewBox="0,0,65,95" width="65px" xmlns="http://www.w3.org/2000/svg" xmlns:ev="http://www.w3.org/2001/xml-events" xmlns:xlink="http://www.w3.org/1999/xlink"><defs /><path d="M 34 2 L 32 4 L 31 4 L 30 3 L 28 5 L 27 5 L 24 8 L 22 8 L 18 12 L 18 13 L 13 18 L 13 19 L 12 20 L 12 21 L 10 23 L 10 25 L 9 26 L 9 27 L 8 28 L 8 29 L 7 30 L 7 31 L 6 32 L 6 35 L 5 36 L 5 38 L 4 39 L 4 41 L 3 42 L 3 49 L 2 50 L 2 59 L 3 60 L 2 61 L 2 68 L 3 69 L 3 76 L 4 77 L 4 79 L 6 81 L 6 83 L 7 84 L 7 85 L 11 89 L 13 89 L 15 91 L 16 91 L 17 92 L 18 91 L 20 91 L 21 92 L 32 92 L 33 91 L 34 92 L 35 92 L 36 91 L 37 92 L 38 92 L 39 91 L 44 91 L 45 90 L 47 90 L 48 89 L 51 89 L 52 88 L 53 88 L 58 83 L 58 81 L 60 79 L 60 69 L 61 68 L 61 67 L 62 66 L 61 65 L 61 63 L 62 62 L 60 60 L 60 57 L 61 56 L 59 54 L 59 52 L 58 51 L 58 50 L 56 48 L 55 48 L 53 46 L 50 46 L 49 45 L 47 45 L 46 44 L 33 44 L 31 46 L 30 45 L 29 46 L 26 46 L 25 47 L 23 47 L 21 45 L 21 44 L 22 43 L 22 41 L 23 40 L 23 38 L 24 37 L 24 35 L 25 34 L 25 33 L 26 32 L 26 30 L 28 28 L 28 27 L 30 25 L 30 24 L 32 22 L 32 21 L 41 12 L 42 12 L 45 9 L 45 8 L 43 6 L 43 4 L 42 3 L 41 3 L 40 2 L 38 2 L 37 3 L 36 2 Z M 32 58 L 33 57 L 39 57 L 42 60 L 43 60 L 46 63 L 46 65 L 47 66 L 47 67 L 46 68 L 46 70 L 41 75 L 40 75 L 39 76 L 38 76 L 36 78 L 33 78 L 32 79 L 31 78 L 30 79 L 26 79 L 25 80 L 24 79 L 23 79 L 21 77 L 21 75 L 20 74 L 20 67 L 21 66 L 21 65 L 26 60 L 27 60 L 28 59 L 29 59 L 30 58 Z" fill="black" fill-rule="evenodd" stroke="none" /></svg>