<?xml version="1.0" encoding="utf-8" ?>
<svg baseProfile="full" height="95px" version="1.1" viewBox="0,0,76,95" width="76px" xmlns="http://www.w3.org/2000/svg" xmlns:ev="http://www.w3.org/2001/xml-events" xmlns:xlink="http://www.w3.org/1999/xlink"><defs /><path d="M 8 6 L 4 10 L 4 15 L 6 19 L 5 21 L 6 30 L 2 41 L 4 43 L 4 45 L 6 47 L 10 48 L 14 47 L 19 42 L 20 32 L 22 30 L 27 32 L 28 31 L 29 32 L 35 32 L 37 34 L 35 49 L 33 51 L 27 49 L 22 50 L 17 55 L 16 58 L 17 63 L 22 68 L 28 70 L 32 69 L 34 71 L 35 75 L 34 76 L 34 89 L 37 94 L 43 96 L 55 91 L 58 87 L 58 83 L 54 68 L 56 66 L 61 65 L 62 66 L 69 63 L 72 60 L 73 57 L 73 52 L 69 46 L 66 47 L 62 46 L 56 49 L 53 47 L 56 34 L 59 29 L 60 25 L 59 24 L 62 19 L 61 18 L 62 17 L 55 10 L 52 9 L 47 10 L 43 13 L 29 13 L 21 11 L 13 6 L 11 7 Z" fill="black" stroke="none" /></svg>