<?xml version="1.0" encoding="utf-8" ?>
<svg baseProfile="full" height="106px" version="1.1" viewBox="0,0,80,106" width="80px" xmlns="http://www.w3.org/2000/svg" xmlns:ev="http://www.w3.org/2001/xml-events" xmlns:xlink="http://www.w3.org/1999/xlink"><defs /><path d="M 51 -7 L 47 -6 L 40 1 L 38 6 L 29 13 L 25 18 L 20 20 L 17 24 L 8 25 L 5 29 L 7 31 L 7 38 L 12 47 L 19 51 L 25 51 L 26 52 L 28 51 L 30 52 L 36 48 L 39 52 L 38 53 L 39 54 L 38 56 L 39 57 L 38 58 L 38 64 L 34 68 L 31 68 L 27 70 L 23 74 L 19 75 L 8 83 L 9 86 L 7 89 L 10 92 L 15 90 L 18 93 L 20 92 L 24 93 L 30 89 L 33 90 L 36 88 L 37 89 L 42 88 L 49 91 L 62 91 L 68 88 L 70 90 L 71 89 L 74 90 L 80 84 L 80 79 L 76 76 L 74 71 L 71 68 L 68 68 L 62 65 L 55 65 L 53 63 L 54 58 L 53 56 L 56 49 L 55 47 L 56 44 L 55 43 L 57 41 L 56 38 L 59 29 L 58 27 L 60 25 L 58 23 L 58 21 L 60 19 L 59 18 L 61 15 L 61 7 L 60 6 L 61 2 L 60 -1 Z" fill="black" stroke="none" /></svg>