<?xml version="1.0" encoding="utf-8" ?>
<svg baseProfile="full" height="102px" version="1.1" viewBox="0,0,69,102" width="69px" xmlns="http://www.w3.org/2000/svg" xmlns:ev="http://www.w3.org/2001/xml-events" xmlns:xlink="http://www.w3.org/1999/xlink"><defs /><path d="M 47 2 L 45 4 L 43 4 L 42 5 L 41 5 L 40 6 L 40 7 L 39 8 L 39 9 L 38 10 L 38 12 L 36 14 L 36 16 L 35 17 L 35 18 L 34 19 L 34 22 L 31 25 L 31 26 L 30 27 L 30 29 L 29 30 L 29 31 L 26 34 L 26 35 L 22 39 L 22 40 L 20 42 L 20 43 L 17 46 L 17 47 L 15 49 L 12 49 L 6 55 L 5 55 L 3 57 L 3 61 L 2 62 L 2 64 L 3 65 L 4 65 L 5 66 L 8 66 L 9 65 L 14 65 L 15 64 L 22 64 L 23 63 L 25 63 L 26 64 L 27 63 L 28 64 L 29 63 L 34 63 L 36 65 L 36 68 L 35 69 L 35 71 L 34 72 L 34 76 L 33 77 L 33 78 L 32 79 L 32 83 L 31 84 L 31 89 L 30 90 L 32 92 L 32 93 L 33 94 L 33 95 L 35 97 L 36 97 L 37 98 L 43 98 L 44 99 L 45 98 L 46 99 L 47 98 L 48 99 L 50 97 L 51 97 L 54 94 L 54 90 L 55 89 L 55 87 L 54 86 L 54 83 L 52 81 L 52 80 L 53 79 L 52 78 L 52 77 L 51 76 L 51 73 L 50 72 L 50 69 L 52 67 L 53 67 L 54 68 L 55 68 L 56 67 L 59 67 L 60 68 L 62 66 L 63 66 L 64 65 L 65 65 L 66 64 L 66 57 L 63 54 L 63 52 L 62 51 L 61 51 L 60 50 L 54 50 L 52 48 L 53 47 L 53 46 L 54 45 L 54 42 L 55 41 L 55 37 L 56 36 L 55 35 L 57 33 L 57 28 L 58 27 L 58 19 L 57 18 L 57 17 L 58 16 L 58 15 L 55 12 L 54 12 L 53 11 L 51 13 L 49 11 L 50 10 L 50 6 L 48 4 L 48 3 Z M 38 34 L 40 36 L 39 37 L 39 38 L 40 39 L 39 40 L 39 42 L 40 43 L 40 44 L 39 45 L 39 46 L 40 47 L 40 48 L 41 49 L 40 50 L 40 52 L 37 55 L 36 54 L 35 54 L 34 53 L 33 54 L 30 54 L 29 53 L 28 53 L 26 51 L 29 48 L 29 47 L 33 43 L 33 42 L 34 41 L 34 40 L 37 37 L 36 36 Z" fill="black" fill-rule="evenodd" stroke="none" /></svg>