<?xml version="1.0" encoding="utf-8" ?>
<svg baseProfile="full" height="100px" version="1.1" viewBox="0,0,78,100" width="78px" xmlns="http://www.w3.org/2000/svg" xmlns:ev="http://www.w3.org/2001/xml-events" xmlns:xlink="http://www.w3.org/1999/xlink"><defs /><path d="M 27 -1 L 23 2 L 19 2 L 15 5 L 6 15 L 7 17 L 4 21 L 5 24 L 3 27 L 5 32 L 5 38 L 10 44 L 13 45 L 19 45 L 24 43 L 25 44 L 32 38 L 33 30 L 30 23 L 34 19 L 36 19 L 39 22 L 42 28 L 41 36 L 34 50 L 35 51 L 33 54 L 10 74 L 4 86 L 7 90 L 11 91 L 17 87 L 19 88 L 23 87 L 32 81 L 42 84 L 53 92 L 63 93 L 73 83 L 72 82 L 76 72 L 74 67 L 76 65 L 71 59 L 68 58 L 66 60 L 61 56 L 53 57 L 44 64 L 42 62 L 52 49 L 60 32 L 60 28 L 62 24 L 61 23 L 62 20 L 60 18 L 60 12 L 58 10 L 58 7 L 51 1 L 46 0 L 37 1 L 32 -1 Z" fill="black" stroke="none" /></svg>