<?xml version="1.0" encoding="utf-8" ?>
<svg baseProfile="full" height="102px" version="1.1" viewBox="0,0,74,102" width="74px" xmlns="http://www.w3.org/2000/svg" xmlns:ev="http://www.w3.org/2001/xml-events" xmlns:xlink="http://www.w3.org/1999/xlink"><defs /><path d="M 33 2 L 32 3 L 30 3 L 28 5 L 27 5 L 26 4 L 23 4 L 21 6 L 20 6 L 9 17 L 9 19 L 7 21 L 6 21 L 5 22 L 5 24 L 4 25 L 4 26 L 3 27 L 4 28 L 3 29 L 3 31 L 2 32 L 3 33 L 3 35 L 2 36 L 3 37 L 3 41 L 2 42 L 3 43 L 3 47 L 2 48 L 3 49 L 3 52 L 2 53 L 4 55 L 3 56 L 3 61 L 4 62 L 4 66 L 3 67 L 4 68 L 4 72 L 5 73 L 5 74 L 6 75 L 6 77 L 7 78 L 7 79 L 8 80 L 8 81 L 12 85 L 12 86 L 13 87 L 14 87 L 16 89 L 16 90 L 22 96 L 23 95 L 24 95 L 26 97 L 28 97 L 30 99 L 33 99 L 34 98 L 35 99 L 36 99 L 37 98 L 39 98 L 40 99 L 41 98 L 44 98 L 45 97 L 46 97 L 47 96 L 49 96 L 50 95 L 52 95 L 53 94 L 54 94 L 55 93 L 56 93 L 58 91 L 59 91 L 61 89 L 61 88 L 63 86 L 63 85 L 64 84 L 64 83 L 65 82 L 65 81 L 66 80 L 66 79 L 67 78 L 67 76 L 68 75 L 68 74 L 70 72 L 70 65 L 71 64 L 71 54 L 69 52 L 69 51 L 70 50 L 70 49 L 68 47 L 68 41 L 67 40 L 68 39 L 67 38 L 67 34 L 66 33 L 66 26 L 65 25 L 65 20 L 64 19 L 64 18 L 63 17 L 63 16 L 62 15 L 62 14 L 57 9 L 54 9 L 52 7 L 52 6 L 51 5 L 50 5 L 49 6 L 46 3 L 35 3 L 34 2 Z M 39 28 L 43 28 L 44 29 L 45 29 L 47 31 L 48 31 L 51 34 L 51 35 L 52 36 L 51 37 L 51 41 L 52 42 L 52 45 L 51 46 L 52 47 L 52 49 L 51 50 L 51 53 L 52 54 L 52 56 L 51 57 L 52 58 L 52 59 L 51 60 L 51 61 L 52 62 L 51 63 L 52 64 L 52 65 L 51 66 L 51 67 L 53 69 L 51 71 L 51 72 L 48 75 L 46 75 L 45 76 L 43 76 L 42 77 L 40 77 L 38 75 L 37 76 L 34 76 L 33 75 L 32 76 L 31 75 L 29 75 L 28 74 L 27 74 L 24 71 L 24 68 L 22 66 L 22 59 L 21 58 L 21 57 L 20 56 L 20 55 L 21 54 L 21 51 L 20 50 L 20 48 L 21 47 L 21 44 L 26 39 L 26 38 L 30 34 L 32 34 L 36 30 L 37 30 Z" fill="black" fill-rule="evenodd" stroke="none" /></svg>