<?xml version="1.0" encoding="utf-8" ?>
<svg baseProfile="full" height="104px" version="1.1" viewBox="0,0,71,104" width="71px" xmlns="http://www.w3.org/2000/svg" xmlns:ev="http://www.w3.org/2001/xml-events" xmlns:xlink="http://www.w3.org/1999/xlink"><defs /><path d="M 39 2 L 38 3 L 35 3 L 34 4 L 32 4 L 31 3 L 30 4 L 27 4 L 25 6 L 24 6 L 20 10 L 19 10 L 18 11 L 18 13 L 15 16 L 15 18 L 14 19 L 14 21 L 15 22 L 13 24 L 13 26 L 12 27 L 12 28 L 13 29 L 12 30 L 12 32 L 11 33 L 12 34 L 11 35 L 12 36 L 11 37 L 12 38 L 12 41 L 14 43 L 14 45 L 16 47 L 16 49 L 15 50 L 15 53 L 11 57 L 11 59 L 9 61 L 9 62 L 8 63 L 8 65 L 7 66 L 7 68 L 6 69 L 6 72 L 4 74 L 4 76 L 3 77 L 3 81 L 2 82 L 2 83 L 3 84 L 2 85 L 4 87 L 3 88 L 4 89 L 4 90 L 5 91 L 5 92 L 8 95 L 8 96 L 9 97 L 11 97 L 14 100 L 15 100 L 16 101 L 17 101 L 18 100 L 20 100 L 21 101 L 24 101 L 25 100 L 26 100 L 27 101 L 33 101 L 34 100 L 35 100 L 36 99 L 38 99 L 39 98 L 41 98 L 42 97 L 43 97 L 44 96 L 46 96 L 48 94 L 49 94 L 51 92 L 53 92 L 58 87 L 58 86 L 61 83 L 61 80 L 62 79 L 62 77 L 63 76 L 63 74 L 64 73 L 63 72 L 64 71 L 64 67 L 63 66 L 63 64 L 64 63 L 62 61 L 62 59 L 61 58 L 61 57 L 59 55 L 59 54 L 56 51 L 61 46 L 61 45 L 64 42 L 64 41 L 65 40 L 65 39 L 66 38 L 66 37 L 67 36 L 67 35 L 66 34 L 66 33 L 68 31 L 67 30 L 67 27 L 68 26 L 68 25 L 67 24 L 67 16 L 66 15 L 66 14 L 64 12 L 64 11 L 58 5 L 57 5 L 56 4 L 54 4 L 53 3 L 49 3 L 48 2 Z M 32 58 L 33 58 L 34 59 L 37 59 L 38 58 L 39 58 L 42 61 L 42 62 L 43 63 L 43 64 L 42 65 L 43 66 L 42 67 L 42 69 L 43 70 L 43 73 L 42 74 L 42 75 L 41 76 L 41 77 L 39 79 L 38 79 L 37 80 L 36 80 L 35 81 L 34 81 L 33 80 L 30 80 L 29 81 L 27 81 L 26 80 L 25 80 L 23 78 L 23 75 L 25 73 L 24 72 L 25 71 L 24 70 L 26 68 L 26 67 L 27 66 L 27 64 L 29 62 L 29 61 Z M 35 18 L 36 19 L 40 19 L 44 23 L 44 24 L 45 25 L 45 26 L 46 27 L 46 28 L 45 29 L 45 31 L 46 32 L 45 33 L 45 34 L 41 38 L 39 38 L 38 39 L 33 39 L 32 40 L 31 39 L 30 40 L 27 37 L 27 35 L 26 34 L 26 33 L 27 32 L 27 31 L 26 30 L 26 29 L 27 28 L 27 26 L 28 25 L 28 24 L 32 20 L 33 20 Z" fill="black" fill-rule="evenodd" stroke="none" /></svg>